<?xml version="1.0" encoding="UTF-8"?>
<!DOCTYPE svg PUBLIC "-//W3C//DTD SVG 1.1//EN" "http://www.w3.org/Graphics/SVG/1.1/DTD/svg11.dtd">
<svg xmlns="http://www.w3.org/2000/svg" version="1.1" width="150px" height="133px" style="shape-rendering:geometricPrecision; text-rendering:geometricPrecision; image-rendering:optimizeQuality; fill-rule:evenodd; clip-rule:evenodd">
<g><path style="opacity:1" fill="#010000" d="M -0.5,-0.5 C 49.5,-0.5 99.5,-0.5 149.5,-0.5C 149.5,43.8333 149.5,88.1667 149.5,132.5C 99.5,132.5 49.5,132.5 -0.5,132.5C -0.5,88.1667 -0.5,43.8333 -0.5,-0.5 Z"/></g>
<g><path style="opacity:1" fill="#3c0501" d="M 66.5,12.5 C 72.987,11.346 79.6536,11.1794 86.5,12C 87.7375,12.2321 88.7375,12.7321 89.5,13.5C 81.8678,12.6423 74.2011,12.3089 66.5,12.5 Z"/></g>
<g><path style="opacity:1" fill="#450807" d="M 66.5,12.5 C 66.5,12.8333 66.5,13.1667 66.5,13.5C 62.7417,13.3952 59.4083,14.3952 56.5,16.5C 55.8333,16.5 55.1667,16.5 54.5,16.5C 57.8357,13.5142 61.8357,12.1808 66.5,12.5 Z"/></g>
<g><path style="opacity:1" fill="#8e2016" d="M 66.5,13.5 C 66.5,13.1667 66.5,12.8333 66.5,12.5C 74.2011,12.3089 81.8678,12.6423 89.5,13.5C 89.5,13.8333 89.5,14.1667 89.5,14.5C 81.8623,13.6869 74.1956,13.3536 66.5,13.5 Z"/></g>
<g><path style="opacity:1" fill="#350a02" d="M 89.5,14.5 C 89.5,14.1667 89.5,13.8333 89.5,13.5C 94.2441,13.543 98.2441,15.2097 101.5,18.5C 99.8828,17.962 98.2161,17.6287 96.5,17.5C 95.4863,16.3263 94.153,15.6596 92.5,15.5C 91.791,14.596 90.791,14.2627 89.5,14.5 Z"/></g>
<g><path style="opacity:1" fill="#aa2a11" d="M 66.5,13.5 C 63.8146,14.6285 61.1479,15.9618 58.5,17.5C 61.447,18.08 64.1137,19.08 66.5,20.5C 62.7999,20.0785 59.1333,19.4119 55.5,18.5C 55.8627,17.8165 56.1961,17.1499 56.5,16.5C 59.4083,14.3952 62.7417,13.3952 66.5,13.5 Z"/></g>
<g><path style="opacity:1" fill="#a82e1a" d="M 92.5,15.5 C 94.153,15.6596 95.4863,16.3263 96.5,17.5C 94.6203,17.7709 93.287,17.1042 92.5,15.5 Z"/></g>
<g><path style="opacity:1" fill="#6f1f13" d="M 54.5,16.5 C 52.5659,19.0582 49.8992,20.3915 46.5,20.5C 48.7886,18.6127 51.4553,17.2794 54.5,16.5 Z"/></g>
<g><path style="opacity:1" fill="#db2f0c" d="M 66.5,13.5 C 74.1956,13.3536 81.8623,13.6869 89.5,14.5C 90.791,14.2627 91.791,14.596 92.5,15.5C 93.287,17.1042 94.6203,17.7709 96.5,17.5C 96.5,17.8333 96.5,18.1667 96.5,18.5C 93.5175,18.1016 90.5175,17.7683 87.5,17.5C 83.538,18.4213 79.538,19.4213 75.5,20.5C 76.3356,23.9075 77.3356,27.2408 78.5,30.5C 77.8333,30.5 77.1667,30.5 76.5,30.5C 76.6716,29.5084 76.3382,28.8417 75.5,28.5C 75.5858,27.5041 75.2524,26.6708 74.5,26C 71.9348,23.9205 69.2682,22.0872 66.5,20.5C 64.1137,19.08 61.447,18.08 58.5,17.5C 61.1479,15.9618 63.8146,14.6285 66.5,13.5 Z"/></g>
<g><path style="opacity:1" fill="#eb2c03" d="M 69.5,14.5 C 73.5,14.5 77.5,14.5 81.5,14.5C 81.719,15.675 81.3857,16.675 80.5,17.5C 77.7111,18.1487 75.0444,19.1487 72.5,20.5C 70.1667,20.1667 69.8333,19.1667 71.5,17.5C 69.9223,16.7022 68.2556,16.2022 66.5,16C 67.7375,15.7679 68.7375,15.2679 69.5,14.5 Z"/></g>
<g><path style="opacity:1" fill="#e72c01" d="M 96.5,18.5 C 104.297,22.4955 111.13,27.8288 117,34.5C 117.315,36.5856 117.815,38.5856 118.5,40.5C 114.594,38.4529 112.261,39.6196 111.5,44C 108.666,44.0454 106.166,44.8787 104,46.5C 102.209,43.1729 100.043,42.8396 97.5,45.5C 96.7492,44.624 96.2492,43.624 96,42.5C 94.0248,42.5077 92.1914,43.5077 90.5,45.5C 89.0488,43.4411 87.0488,42.4411 84.5,42.5C 84.5,40.8333 84.5,39.1667 84.5,37.5C 83.5,37.5 82.5,37.5 81.5,37.5C 81.821,34.4231 80.821,32.0897 78.5,30.5C 77.3356,27.2408 76.3356,23.9075 75.5,20.5C 79.538,19.4213 83.538,18.4213 87.5,17.5C 90.5175,17.7683 93.5175,18.1016 96.5,18.5 Z"/></g>
<g><path style="opacity:1" fill="#902515" d="M 101.5,19.5 C 103.553,19.4021 105.22,20.0687 106.5,21.5C 106.833,22.1667 107.167,22.8333 107.5,23.5C 105.264,22.4538 103.264,21.1205 101.5,19.5 Z"/></g>
<g><path style="opacity:1" fill="#8d1f06" d="M 54.5,16.5 C 55.1667,16.5 55.8333,16.5 56.5,16.5C 56.1961,17.1499 55.8627,17.8165 55.5,18.5C 59.1333,19.4119 62.7999,20.0785 66.5,20.5C 69.2682,22.0872 71.9348,23.9205 74.5,26C 75.2524,26.6708 75.5858,27.5041 75.5,28.5C 74.3121,27.3157 73.1455,27.3157 72,28.5C 71.6779,31.6663 70.5113,34.333 68.5,36.5C 69.4279,33.3951 69.7612,30.3951 69.5,27.5C 63.8522,26.5089 58.8522,24.1755 54.5,20.5C 50.6775,21.1857 47.0108,22.1857 43.5,23.5C 44.6935,22.7281 45.6935,21.7281 46.5,20.5C 49.8992,20.3915 52.5659,19.0582 54.5,16.5 Z"/></g>
<g><path style="opacity:1" fill="#430602" d="M 106.5,21.5 C 108.027,21.427 109.027,22.0937 109.5,23.5C 108.833,23.5 108.167,23.5 107.5,23.5C 107.167,22.8333 106.833,22.1667 106.5,21.5 Z"/></g>
<g><path style="opacity:1" fill="#531209" d="M 46.5,20.5 C 45.6935,21.7281 44.6935,22.7281 43.5,23.5C 41.4268,25.5798 39.0934,27.2464 36.5,28.5C 38.9626,24.6998 42.296,22.0332 46.5,20.5 Z"/></g>
<g><path style="opacity:1" fill="#c03215" d="M 96.5,17.5 C 98.2161,17.6287 99.8828,17.962 101.5,18.5C 101.5,18.8333 101.5,19.1667 101.5,19.5C 103.264,21.1205 105.264,22.4538 107.5,23.5C 108.167,23.5 108.833,23.5 109.5,23.5C 109.5,25.5 110.5,26.5 112.5,26.5C 112.833,27.5 113.5,28.1667 114.5,28.5C 115.08,30.7488 116.413,32.4154 118.5,33.5C 119.623,35.5806 120.623,37.7473 121.5,40C 120.798,41.8563 119.464,43.023 117.5,43.5C 116.5,43.5 115.5,43.5 114.5,43.5C 115.448,42.0221 116.781,41.0221 118.5,40.5C 117.815,38.5856 117.315,36.5856 117,34.5C 111.13,27.8288 104.297,22.4955 96.5,18.5C 96.5,18.1667 96.5,17.8333 96.5,17.5 Z"/></g>
<g><path style="opacity:1" fill="#61150d" d="M 109.5,23.5 C 110.833,24.1667 111.833,25.1667 112.5,26.5C 110.5,26.5 109.5,25.5 109.5,23.5 Z"/></g>
<g><path style="opacity:1" fill="#a12407" d="M 68.5,36.5 C 67.8333,38.8333 67.1667,41.1667 66.5,43.5C 65.8333,43.5 65.1667,43.5 64.5,43.5C 64.5,42.8333 64.5,42.1667 64.5,41.5C 65.5221,37.7758 66.8554,34.1091 68.5,30.5C 62.3187,30.988 56.8187,29.3213 52,25.5C 51.586,25.9574 51.086,26.2907 50.5,26.5C 46.4016,23.453 43.0683,24.1197 40.5,28.5C 38.0786,30.7827 35.4119,32.7827 32.5,34.5C 33.8333,32.5 35.1667,30.5 36.5,28.5C 39.0934,27.2464 41.4268,25.5798 43.5,23.5C 47.0108,22.1857 50.6775,21.1857 54.5,20.5C 58.8522,24.1755 63.8522,26.5089 69.5,27.5C 69.7612,30.3951 69.4279,33.3951 68.5,36.5 Z"/></g>
<g><path style="opacity:1" fill="#b12403" d="M 64.5,41.5 C 64.5,39.8333 64.5,38.1667 64.5,36.5C 56.2893,33.7974 48.2893,31.1307 40.5,28.5C 43.0683,24.1197 46.4016,23.453 50.5,26.5C 51.086,26.2907 51.586,25.9574 52,25.5C 56.8187,29.3213 62.3187,30.988 68.5,30.5C 66.8554,34.1091 65.5221,37.7758 64.5,41.5 Z"/></g>
<g><path style="opacity:1" fill="#5c170f" d="M 114.5,28.5 C 116.587,29.5846 117.92,31.2512 118.5,33.5C 116.413,32.4154 115.08,30.7488 114.5,28.5 Z"/></g>
<g><path style="opacity:1" fill="#62120c" d="M 36.5,28.5 C 35.1667,30.5 33.8333,32.5 32.5,34.5C 32.1667,34.5 31.8333,34.5 31.5,34.5C 32.2471,31.6385 33.9138,29.6385 36.5,28.5 Z"/></g>
<g><path style="opacity:1" fill="#c52702" d="M 40.5,28.5 C 48.2893,31.1307 56.2893,33.7974 64.5,36.5C 64.5,38.1667 64.5,39.8333 64.5,41.5C 64.5,42.1667 64.5,42.8333 64.5,43.5C 62.506,46.5096 61.506,49.843 61.5,53.5C 60.0256,54.4363 59.0256,55.7697 58.5,57.5C 57.8333,58.1667 57.1667,58.8333 56.5,59.5C 56.7036,57.3146 57.3702,55.3146 58.5,53.5C 60.7626,51.2335 61.0959,48.5668 59.5,45.5C 59.9767,44.5224 60.6433,43.6891 61.5,43C 58.8089,43.792 56.1422,43.4587 53.5,42C 52.0397,40.418 50.373,39.0847 48.5,38C 45.7996,37.7468 43.133,37.7468 40.5,38C 39.0569,36.9328 37.7236,35.7662 36.5,34.5C 35.2638,35.2458 33.9305,35.5792 32.5,35.5C 32.5,35.1667 32.5,34.8333 32.5,34.5C 35.4119,32.7827 38.0786,30.7827 40.5,28.5 Z"/></g>
<g><path style="opacity:1" fill="#70170c" d="M 76.5,30.5 C 77.1667,30.5 77.8333,30.5 78.5,30.5C 78.6287,32.2161 78.962,33.8828 79.5,35.5C 78.8333,35.1667 78.1667,34.8333 77.5,34.5C 77.1667,33.1667 76.8333,31.8333 76.5,30.5 Z"/></g>
<g><path style="opacity:1" fill="#040001" d="M 76.5,30.5 C 76.8333,31.8333 77.1667,33.1667 77.5,34.5C 77.3359,37.1873 77.5026,39.854 78,42.5C 78.3076,41.6919 78.8076,41.0253 79.5,40.5C 81.9471,44.7883 83.4471,49.455 84,54.5C 84.7096,53.0267 85.8762,52.3601 87.5,52.5C 87.0773,54.7812 87.744,56.4479 89.5,57.5C 90.1667,57.5 90.5,57.8333 90.5,58.5C 91.3559,61.5131 93.1892,62.1797 96,60.5C 96.6924,61.0253 97.1924,61.6919 97.5,62.5C 96.0663,63.2298 94.8996,64.2298 94,65.5C 93.6095,70.2823 92.7761,74.949 91.5,79.5C 89.8847,82.4495 87.8847,85.1162 85.5,87.5C 85.1667,87.5 84.8333,87.5 84.5,87.5C 82.9731,87.427 81.9731,88.0937 81.5,89.5C 80.8333,89.5 80.1667,89.5 79.5,89.5C 75.1311,89.5328 70.7978,89.1995 66.5,88.5C 66.5,87.8333 66.1667,87.5 65.5,87.5C 64.5,85.1667 62.8333,83.5 60.5,82.5C 57.024,76.7191 55.6907,70.3858 56.5,63.5C 56.5,62.8333 56.8333,62.5 57.5,62.5C 59.7593,61.656 60.7593,59.9893 60.5,57.5C 60.8333,56.1667 61.1667,54.8333 61.5,53.5C 62.3382,53.1583 62.6716,52.4916 62.5,51.5C 63.9063,51.0269 64.573,50.0269 64.5,48.5C 64.8925,46.7162 65.5592,45.0495 66.5,43.5C 69.683,40.1772 71.8497,36.1772 73,31.5C 74.0113,30.6634 75.1779,30.33 76.5,30.5 Z"/></g>
<g><path style="opacity:1" fill="#a12913" d="M 30.5,34.5 C 30.8333,34.5 31.1667,34.5 31.5,34.5C 31.8333,34.5 32.1667,34.5 32.5,34.5C 32.5,34.8333 32.5,35.1667 32.5,35.5C 31.8553,37.8263 30.522,39.493 28.5,40.5C 29.1667,38.5 29.8333,36.5 30.5,34.5 Z"/></g>
<g><path style="opacity:1" fill="#ca3113" d="M 78.5,30.5 C 80.821,32.0897 81.821,34.4231 81.5,37.5C 82.5,37.5 83.5,37.5 84.5,37.5C 84.5,39.1667 84.5,40.8333 84.5,42.5C 84.5,42.8333 84.5,43.1667 84.5,43.5C 84.1667,43.5 83.8333,43.5 83.5,43.5C 83.573,41.9731 82.9063,40.9731 81.5,40.5C 81.1075,38.7162 80.4408,37.0495 79.5,35.5C 78.962,33.8828 78.6287,32.2161 78.5,30.5 Z"/></g>
<g><path style="opacity:1" fill="#4d100c" d="M 75.5,28.5 C 76.3382,28.8417 76.6716,29.5084 76.5,30.5C 75.1779,30.33 74.0113,30.6634 73,31.5C 71.8497,36.1772 69.683,40.1772 66.5,43.5C 67.1667,41.1667 67.8333,38.8333 68.5,36.5C 70.5113,34.333 71.6779,31.6663 72,28.5C 73.1455,27.3157 74.3121,27.3157 75.5,28.5 Z"/></g>
<g><path style="opacity:1" fill="#420402" d="M 27.5,40.5 C 27.5,41.1667 27.5,41.8333 27.5,42.5C 26.8333,42.8333 26.1667,43.1667 25.5,43.5C 25.427,41.9731 26.0937,40.9731 27.5,40.5 Z"/></g>
<g><path style="opacity:1" fill="#6c120f" d="M 81.5,40.5 C 82.9063,40.9731 83.573,41.9731 83.5,43.5C 82.0937,43.0269 81.427,42.0269 81.5,40.5 Z"/></g>
<g><path style="opacity:1" fill="#df2d04" d="M 118.5,40.5 C 116.781,41.0221 115.448,42.0221 114.5,43.5C 113.833,44.5 113.167,45.5 112.5,46.5C 112.5,46.8333 112.5,47.1667 112.5,47.5C 111.391,47.5569 110.391,47.8902 109.5,48.5C 104.688,50.7162 100.021,53.2162 95.5,56C 94.2068,56.49 92.8734,56.6567 91.5,56.5C 91.573,54.9731 90.9063,53.9731 89.5,53.5C 88.7206,49.6913 87.054,46.3579 84.5,43.5C 84.5,43.1667 84.5,42.8333 84.5,42.5C 87.0488,42.4411 89.0488,43.4411 90.5,45.5C 92.1914,43.5077 94.0248,42.5077 96,42.5C 96.2492,43.624 96.7492,44.624 97.5,45.5C 100.043,42.8396 102.209,43.1729 104,46.5C 106.166,44.8787 108.666,44.0454 111.5,44C 112.261,39.6196 114.594,38.4529 118.5,40.5 Z"/></g>
<g><path style="opacity:1" fill="#4e0e0b" d="M 118.5,33.5 C 120.017,33.5106 121.184,34.1772 122,35.5C 122.667,37.8333 122.667,40.1667 122,42.5C 119.948,44.0585 117.781,45.3918 115.5,46.5C 115.167,46.5 114.833,46.5 114.5,46.5C 115.306,45.2719 116.306,44.2719 117.5,43.5C 119.464,43.023 120.798,41.8563 121.5,40C 120.623,37.7473 119.623,35.5806 118.5,33.5 Z"/></g>
<g><path style="opacity:1" fill="#220302" d="M 30.5,34.5 C 29.8333,36.5 29.1667,38.5 28.5,40.5C 28.1667,40.5 27.8333,40.5 27.5,40.5C 26.0937,40.9731 25.427,41.9731 25.5,43.5C 25.3713,45.2161 25.038,46.8828 24.5,48.5C 23.8333,49.5 23.1667,50.5 22.5,51.5C 22.8532,45.7792 24.5198,40.4459 27.5,35.5C 28.325,34.6143 29.325,34.281 30.5,34.5 Z"/></g>
<g><path style="opacity:1" fill="#821d12" d="M 27.5,42.5 C 27.2451,44.9674 26.2451,46.9674 24.5,48.5C 25.038,46.8828 25.3713,45.2161 25.5,43.5C 26.1667,43.1667 26.8333,42.8333 27.5,42.5 Z"/></g>
<g><path style="opacity:1" fill="#942c18" d="M 114.5,43.5 C 115.5,43.5 116.5,43.5 117.5,43.5C 116.306,44.2719 115.306,45.2719 114.5,46.5C 113.833,46.5 113.167,46.5 112.5,46.5C 113.167,45.5 113.833,44.5 114.5,43.5 Z"/></g>
<g><path style="opacity:1" fill="#d52a02" d="M 58.5,53.5 C 58.631,52.7611 58.4643,52.0944 58,51.5C 57.2825,52.4506 56.4491,52.6172 55.5,52C 56.8333,51.3333 56.8333,50.6667 55.5,50C 49.1226,48.7934 42.9559,46.96 37,44.5C 34.2305,45.3479 31.3971,45.6813 28.5,45.5C 27.7945,47.6716 26.7945,49.6716 25.5,51.5C 25.1667,51.5 24.8333,51.5 24.5,51.5C 24.5,50.5 24.5,49.5 24.5,48.5C 26.2451,46.9674 27.2451,44.9674 27.5,42.5C 27.5,41.8333 27.5,41.1667 27.5,40.5C 27.8333,40.5 28.1667,40.5 28.5,40.5C 30.522,39.493 31.8553,37.8263 32.5,35.5C 33.9305,35.5792 35.2638,35.2458 36.5,34.5C 37.7236,35.7662 39.0569,36.9328 40.5,38C 43.133,37.7468 45.7996,37.7468 48.5,38C 50.373,39.0847 52.0397,40.418 53.5,42C 56.1422,43.4587 58.8089,43.792 61.5,43C 60.6433,43.6891 59.9767,44.5224 59.5,45.5C 61.0959,48.5668 60.7626,51.2335 58.5,53.5 Z"/></g>
<g><path style="opacity:1" fill="#a02813" d="M 83.5,43.5 C 83.8333,43.5 84.1667,43.5 84.5,43.5C 87.054,46.3579 88.7206,49.6913 89.5,53.5C 88.1667,51.8333 86.8333,50.1667 85.5,48.5C 85.573,46.9731 84.9063,45.9731 83.5,45.5C 83.5,44.8333 83.5,44.1667 83.5,43.5 Z"/></g>
<g><path style="opacity:1" fill="#de2b03" d="M 58.5,53.5 C 57.3702,55.3146 56.7036,57.3146 56.5,59.5C 56.1667,60.8333 55.8333,62.1667 55.5,63.5C 55.5,63.8333 55.5,64.1667 55.5,64.5C 54.5166,68.2984 54.1832,72.2984 54.5,76.5C 53.7166,69.9752 52.8833,63.3085 52,56.5C 49.5185,54.6863 46.6852,54.0196 43.5,54.5C 40.5961,47.9843 36.2628,46.9843 30.5,51.5C 29.8076,50.9747 29.3076,50.3081 29,49.5C 28.2904,50.9733 27.1238,51.6399 25.5,51.5C 26.7945,49.6716 27.7945,47.6716 28.5,45.5C 31.3971,45.6813 34.2305,45.3479 37,44.5C 42.9559,46.96 49.1226,48.7934 55.5,50C 56.8333,50.6667 56.8333,51.3333 55.5,52C 56.4491,52.6172 57.2825,52.4506 58,51.5C 58.4643,52.0944 58.631,52.7611 58.5,53.5 Z"/></g>
<g><path style="opacity:1" fill="#400602" d="M 83.5,45.5 C 84.9063,45.9731 85.573,46.9731 85.5,48.5C 84.0937,48.0269 83.427,47.0269 83.5,45.5 Z"/></g>
<g><path style="opacity:1" fill="#8a2811" d="M 64.5,43.5 C 65.1667,43.5 65.8333,43.5 66.5,43.5C 65.5592,45.0495 64.8925,46.7162 64.5,48.5C 63.0937,48.9731 62.427,49.9731 62.5,51.5C 62.6716,52.4916 62.3382,53.1583 61.5,53.5C 61.506,49.843 62.506,46.5096 64.5,43.5 Z"/></g>
<g><path style="opacity:1" fill="#1c0304" d="M 77.5,34.5 C 78.1667,34.8333 78.8333,35.1667 79.5,35.5C 80.4408,37.0495 81.1075,38.7162 81.5,40.5C 81.427,42.0269 82.0937,43.0269 83.5,43.5C 83.5,44.1667 83.5,44.8333 83.5,45.5C 83.427,47.0269 84.0937,48.0269 85.5,48.5C 86.8333,50.1667 88.1667,51.8333 89.5,53.5C 89.5,54.1667 89.5,54.8333 89.5,55.5C 89.5,56.1667 89.5,56.8333 89.5,57.5C 87.744,56.4479 87.0773,54.7812 87.5,52.5C 85.8762,52.3601 84.7096,53.0267 84,54.5C 83.4471,49.455 81.9471,44.7883 79.5,40.5C 78.8076,41.0253 78.3076,41.6919 78,42.5C 77.5026,39.854 77.3359,37.1873 77.5,34.5 Z"/></g>
<g><path style="opacity:1" fill="#130203" d="M 112.5,46.5 C 113.167,46.5 113.833,46.5 114.5,46.5C 114.833,46.5 115.167,46.5 115.5,46.5C 115.312,48.1033 115.812,49.4366 117,50.5C 118.356,49.6198 119.856,49.2865 121.5,49.5C 118.362,51.2399 115.362,53.2399 112.5,55.5C 110.034,56.2977 108.034,57.631 106.5,59.5C 105.167,59.5 104.5,60.1667 104.5,61.5C 100.791,61.679 98.1239,63.3457 96.5,66.5C 94.5977,69.3373 93.931,72.6707 94.5,76.5C 93.0937,76.9731 92.427,77.9731 92.5,79.5C 92.1667,79.5 91.8333,79.5 91.5,79.5C 92.7761,74.949 93.6095,70.2823 94,65.5C 94.8996,64.2298 96.0663,63.2298 97.5,62.5C 97.1924,61.6919 96.6924,61.0253 96,60.5C 93.1892,62.1797 91.3559,61.5131 90.5,58.5C 90.8333,58.5 91.1667,58.5 91.5,58.5C 92.8333,59.8333 94.1667,59.8333 95.5,58.5C 97.0269,58.573 98.0269,57.9063 98.5,56.5C 100.544,55.4918 102.544,54.4918 104.5,53.5C 105.29,52.5987 106.29,51.9321 107.5,51.5C 109.749,50.9202 111.415,49.5869 112.5,47.5C 112.5,47.1667 112.5,46.8333 112.5,46.5 Z"/></g>
<g><path style="opacity:1" fill="#491008" d="M 64.5,48.5 C 64.573,50.0269 63.9063,51.0269 62.5,51.5C 62.427,49.9731 63.0937,48.9731 64.5,48.5 Z"/></g>
<g><path style="opacity:1" fill="#340804" d="M 112.5,47.5 C 111.415,49.5869 109.749,50.9202 107.5,51.5C 108.167,50.5 108.833,49.5 109.5,48.5C 110.391,47.8902 111.391,47.5569 112.5,47.5 Z"/></g>
<g><path style="opacity:1" fill="#962b17" d="M 109.5,48.5 C 108.833,49.5 108.167,50.5 107.5,51.5C 106.29,51.9321 105.29,52.5987 104.5,53.5C 101.687,53.0246 99.6874,54.0246 98.5,56.5C 96.9731,56.427 95.9731,57.0937 95.5,58.5C 94.1667,59.8333 92.8333,59.8333 91.5,58.5C 91.5,57.8333 91.5,57.1667 91.5,56.5C 92.8734,56.6567 94.2068,56.49 95.5,56C 100.021,53.2162 104.688,50.7162 109.5,48.5 Z"/></g>
<g><path style="opacity:1" fill="#480b07" d="M 104.5,53.5 C 102.544,54.4918 100.544,55.4918 98.5,56.5C 99.6874,54.0246 101.687,53.0246 104.5,53.5 Z"/></g>
<g><path style="opacity:1" fill="#9d2215" d="M 89.5,53.5 C 90.9063,53.9731 91.573,54.9731 91.5,56.5C 90.8333,56.1667 90.1667,55.8333 89.5,55.5C 89.5,54.8333 89.5,54.1667 89.5,53.5 Z"/></g>
<g><path style="opacity:1" fill="#761e17" d="M 61.5,53.5 C 61.1667,54.8333 60.8333,56.1667 60.5,57.5C 59.8333,58.1667 59.1667,58.8333 58.5,59.5C 58.5,58.8333 58.5,58.1667 58.5,57.5C 59.0256,55.7697 60.0256,54.4363 61.5,53.5 Z"/></g>
<g><path style="opacity:1" fill="#4d0807" d="M 89.5,55.5 C 90.1667,55.8333 90.8333,56.1667 91.5,56.5C 91.5,57.1667 91.5,57.8333 91.5,58.5C 91.1667,58.5 90.8333,58.5 90.5,58.5C 90.5,57.8333 90.1667,57.5 89.5,57.5C 89.5,56.8333 89.5,56.1667 89.5,55.5 Z"/></g>
<g><path style="opacity:1" fill="#380c03" d="M 98.5,56.5 C 98.0269,57.9063 97.0269,58.573 95.5,58.5C 95.9731,57.0937 96.9731,56.427 98.5,56.5 Z"/></g>
<g><path style="opacity:1" fill="#4d0a05" d="M 112.5,55.5 C 111.147,57.7379 109.147,59.0713 106.5,59.5C 108.034,57.631 110.034,56.2977 112.5,55.5 Z"/></g>
<g><path style="opacity:1" fill="#7e2114" d="M 129.5,59.5 C 129.848,66.948 129.182,74.2813 127.5,81.5C 127.5,81.8333 127.5,82.1667 127.5,82.5C 127.167,82.5 126.833,82.5 126.5,82.5C 126.833,79.1667 127.167,75.8333 127.5,72.5C 127.5,71.1667 127.5,69.8333 127.5,68.5C 127.666,63.8215 127.499,59.1548 127,54.5C 126.768,53.2625 126.268,52.2625 125.5,51.5C 125.265,50.9033 124.765,50.5699 124,50.5C 120.468,52.8494 116.634,54.516 112.5,55.5C 115.362,53.2399 118.362,51.2399 121.5,49.5C 122.936,47.6815 124.603,47.3482 126.5,48.5C 128.281,51.9558 129.281,55.6224 129.5,59.5 Z"/></g>
<g><path style="opacity:1" fill="#e72c01" d="M 54.5,76.5 C 54.427,78.0269 55.0937,79.0269 56.5,79.5C 56.5,81.5 56.5,83.5 56.5,85.5C 59.1514,86.7112 61.8181,88.0445 64.5,89.5C 65.1667,89.5 65.8333,89.5 66.5,89.5C 67.4856,91.4077 69.1523,92.4077 71.5,92.5C 72.6594,94.2503 74.326,95.2503 76.5,95.5C 76.8333,96.5 77.5,97.1667 78.5,97.5C 78.5,98.5 78.5,99.5 78.5,100.5C 82.2122,100.961 85.8789,101.627 89.5,102.5C 94.9753,103.489 100.642,103.822 106.5,103.5C 106.5,104.5 106.5,105.5 106.5,106.5C 106.5,106.833 106.5,107.167 106.5,107.5C 102.763,107.241 100.43,108.907 99.5,112.5C 98.209,112.263 97.209,112.596 96.5,113.5C 85.3345,115.246 74.0012,115.746 62.5,115C 59.9405,114.773 58.2738,113.44 57.5,111C 55.1902,110.503 52.8568,110.337 50.5,110.5C 50.5,109.5 50.5,108.5 50.5,107.5C 61.1222,108.179 61.1222,107.512 50.5,105.5C 48.9559,105.79 47.6226,106.456 46.5,107.5C 44.2427,104.411 41.2427,102.411 37.5,101.5C 37.1231,99.742 36.4565,98.0754 35.5,96.5C 37.5846,94.1642 37.7512,91.8309 36,89.5C 35.3261,90.5784 34.3261,91.2451 33,91.5C 30.8495,90.8334 29.3495,89.5001 28.5,87.5C 27.7368,85.6316 26.7368,83.9649 25.5,82.5C 25.1667,82.5 24.8333,82.5 24.5,82.5C 24.1667,79.8333 23.8333,77.1667 23.5,74.5C 23.3169,67.1319 23.6502,59.7985 24.5,52.5C 24.5,52.1667 24.5,51.8333 24.5,51.5C 24.8333,51.5 25.1667,51.5 25.5,51.5C 27.1238,51.6399 28.2904,50.9733 29,49.5C 29.3076,50.3081 29.8076,50.9747 30.5,51.5C 36.2628,46.9843 40.5961,47.9843 43.5,54.5C 46.6852,54.0196 49.5185,54.6863 52,56.5C 52.8833,63.3085 53.7166,69.9752 54.5,76.5 Z"/></g>
<g><path style="opacity:1" fill="#a62c1b" d="M 58.5,57.5 C 58.5,58.1667 58.5,58.8333 58.5,59.5C 57.8902,60.391 57.5569,61.391 57.5,62.5C 56.8333,62.5 56.5,62.8333 56.5,63.5C 56.1667,63.5 55.8333,63.5 55.5,63.5C 55.8333,62.1667 56.1667,60.8333 56.5,59.5C 57.1667,58.8333 57.8333,58.1667 58.5,57.5 Z"/></g>
<g><path style="opacity:1" fill="#280600" d="M 60.5,57.5 C 60.7593,59.9893 59.7593,61.656 57.5,62.5C 57.5569,61.391 57.8902,60.391 58.5,59.5C 59.1667,58.8333 59.8333,58.1667 60.5,57.5 Z"/></g>
<g><path style="opacity:1" fill="#6e190c" d="M 106.5,59.5 C 106.5,60.8333 105.833,61.5 104.5,61.5C 104.5,60.1667 105.167,59.5 106.5,59.5 Z"/></g>
<g><path style="opacity:1" fill="#65150b" d="M 104.5,61.5 C 104.167,62.5 103.5,63.1667 102.5,63.5C 100.973,63.427 99.9731,64.0937 99.5,65.5C 98.391,65.5569 97.391,65.8902 96.5,66.5C 98.1239,63.3457 100.791,61.679 104.5,61.5 Z"/></g>
<g><path style="opacity:1" fill="#cc2904" d="M 125.5,51.5 C 125.619,55.347 124.953,59.0137 123.5,62.5C 116.067,63.4217 109.567,66.4217 104,71.5C 103.667,71.1667 103.333,70.8333 103,70.5C 102.077,71.7588 101.243,73.0921 100.5,74.5C 98.9427,70.3928 99.6094,66.7261 102.5,63.5C 103.5,63.1667 104.167,62.5 104.5,61.5C 105.833,61.5 106.5,60.8333 106.5,59.5C 109.147,59.0713 111.147,57.7379 112.5,55.5C 116.634,54.516 120.468,52.8494 124,50.5C 124.765,50.5699 125.265,50.9033 125.5,51.5 Z"/></g>
<g><path style="opacity:1" fill="#bf2503" d="M 125.5,51.5 C 126.268,52.2625 126.768,53.2625 127,54.5C 127.499,59.1548 127.666,63.8215 127.5,68.5C 126.448,68.3505 125.448,68.5172 124.5,69C 123.285,71.3754 121.619,73.2088 119.5,74.5C 117.02,75.9117 114.687,77.5784 112.5,79.5C 112.582,77.7483 111.749,76.7483 110,76.5C 105.909,78.4056 101.743,78.7389 97.5,77.5C 97.1906,73.2953 97.8572,69.2953 99.5,65.5C 99.9731,64.0937 100.973,63.427 102.5,63.5C 99.6094,66.7261 98.9427,70.3928 100.5,74.5C 101.243,73.0921 102.077,71.7588 103,70.5C 103.333,70.8333 103.667,71.1667 104,71.5C 109.567,66.4217 116.067,63.4217 123.5,62.5C 124.953,59.0137 125.619,55.347 125.5,51.5 Z"/></g>
<g><path style="opacity:1" fill="#be3214" d="M 24.5,52.5 C 23.6502,59.7985 23.3169,67.1319 23.5,74.5C 22.3467,68.3471 22.18,62.0137 23,55.5C 23.2321,54.2625 23.7321,53.2625 24.5,52.5 Z"/></g>
<g><path style="opacity:1" fill="#af3116" d="M 55.5,64.5 C 55.2743,69.5624 55.6076,74.5624 56.5,79.5C 55.0937,79.0269 54.427,78.0269 54.5,76.5C 54.1832,72.2984 54.5166,68.2984 55.5,64.5 Z"/></g>
<g><path style="opacity:1" fill="#58110a" d="M 55.5,63.5 C 55.8333,63.5 56.1667,63.5 56.5,63.5C 55.6907,70.3858 57.024,76.7191 60.5,82.5C 59.8333,82.5 59.1667,82.5 58.5,82.5C 58.573,80.9731 57.9063,79.9731 56.5,79.5C 55.6076,74.5624 55.2743,69.5624 55.5,64.5C 55.5,64.1667 55.5,63.8333 55.5,63.5 Z"/></g>
<g><path style="opacity:1" fill="#811d14" d="M 96.5,66.5 C 96.8128,70.0419 96.4794,73.3752 95.5,76.5C 95.1667,76.5 94.8333,76.5 94.5,76.5C 93.931,72.6707 94.5977,69.3373 96.5,66.5 Z"/></g>
<g><path style="opacity:1" fill="#c83515" d="M 127.5,72.5 C 127.167,75.8333 126.833,79.1667 126.5,82.5C 126.167,82.5 125.833,82.5 125.5,82.5C 125.335,79.4816 125.502,76.4816 126,73.5C 126.383,72.944 126.883,72.6107 127.5,72.5 Z"/></g>
<g><path style="opacity:1" fill="#1b0100" d="M 129.5,59.5 C 130.188,64.5667 130.855,69.7334 131.5,75C 130.432,77.4381 129.098,79.6048 127.5,81.5C 129.182,74.2813 129.848,66.948 129.5,59.5 Z"/></g>
<g><path style="opacity:1" fill="#b32403" d="M 99.5,65.5 C 97.8572,69.2953 97.1906,73.2953 97.5,77.5C 101.743,78.7389 105.909,78.4056 110,76.5C 111.749,76.7483 112.582,77.7483 112.5,79.5C 112.167,79.5 111.833,79.5 111.5,79.5C 107.112,81.3896 103.112,83.8896 99.5,87C 98.5393,89.8345 98.706,92.6679 100,95.5C 101.049,97.1066 102.549,97.7733 104.5,97.5C 104.5,98.8333 104.5,100.167 104.5,101.5C 95.3864,102.324 86.7197,100.991 78.5,97.5C 77.5,97.1667 76.8333,96.5 76.5,95.5C 78.1172,96.038 79.7839,96.3713 81.5,96.5C 84.7817,97.4946 88.1151,98.4946 91.5,99.5C 93.3893,99.5637 95.0559,99.0637 96.5,98C 94.269,96.3903 92.269,94.557 90.5,92.5C 91.8333,90.8333 91.8333,89.1667 90.5,87.5C 90.9186,86.3279 91.5853,85.3279 92.5,84.5C 93.208,91.4367 94.8747,91.9367 97.5,86C 95.6556,83.1963 94.9889,80.0297 95.5,76.5C 96.4794,73.3752 96.8128,70.0419 96.5,66.5C 97.391,65.8902 98.391,65.5569 99.5,65.5 Z"/></g>
<g><path style="opacity:1" fill="#5c0e08" d="M 24.5,48.5 C 24.5,49.5 24.5,50.5 24.5,51.5C 24.5,51.8333 24.5,52.1667 24.5,52.5C 23.7321,53.2625 23.2321,54.2625 23,55.5C 22.18,62.0137 22.3467,68.3471 23.5,74.5C 23.8333,77.1667 24.1667,79.8333 24.5,82.5C 20.0342,72.5496 19.3675,62.2163 22.5,51.5C 23.1667,50.5 23.8333,49.5 24.5,48.5 Z"/></g>
<g><path style="opacity:1" fill="#460902" d="M 94.5,76.5 C 94.573,78.0269 93.9063,79.0269 92.5,79.5C 92.427,77.9731 93.0937,76.9731 94.5,76.5 Z"/></g>
<g><path style="opacity:1" fill="#cd3112" d="M 56.5,79.5 C 57.9063,79.9731 58.573,80.9731 58.5,82.5C 58.5,83.8333 59.1667,84.5 60.5,84.5C 61.8333,85.5 63.1667,86.5 64.5,87.5C 64.5,88.1667 64.5,88.8333 64.5,89.5C 61.8181,88.0445 59.1514,86.7112 56.5,85.5C 56.5,83.5 56.5,81.5 56.5,79.5 Z"/></g>
<g><path style="opacity:1" fill="#a22d1a" d="M 58.5,82.5 C 59.1667,82.5 59.8333,82.5 60.5,82.5C 60.5,83.1667 60.5,83.8333 60.5,84.5C 59.1667,84.5 58.5,83.8333 58.5,82.5 Z"/></g>
<g><path style="opacity:1" fill="#490904" d="M 91.5,79.5 C 91.8333,79.5 92.1667,79.5 92.5,79.5C 92.385,81.9468 91.385,83.9468 89.5,85.5C 88.3951,86.6005 87.0618,87.2671 85.5,87.5C 87.8847,85.1162 89.8847,82.4495 91.5,79.5 Z"/></g>
<g><path style="opacity:1" fill="#dd2c04" d="M 127.5,68.5 C 127.5,69.8333 127.5,71.1667 127.5,72.5C 126.883,72.6107 126.383,72.944 126,73.5C 125.502,76.4816 125.335,79.4816 125.5,82.5C 125.5,83.1667 125.5,83.8333 125.5,84.5C 123.787,85.6354 123.12,87.302 123.5,89.5C 123.167,89.5 122.833,89.5 122.5,89.5C 120.889,91.7779 118.889,93.7779 116.5,95.5C 112.087,95.702 110.421,93.8687 111.5,90C 110.899,88.395 109.899,87.0616 108.5,86C 109.45,83.0899 111.45,81.9232 114.5,82.5C 114.5,79.1667 116.167,77.5 119.5,77.5C 119.5,76.5 119.5,75.5 119.5,74.5C 121.619,73.2088 123.285,71.3754 124.5,69C 125.448,68.5172 126.448,68.3505 127.5,68.5 Z"/></g>
<g><path style="opacity:1" fill="#480a05" d="M 60.5,82.5 C 62.8333,83.5 64.5,85.1667 65.5,87.5C 65.1667,87.5 64.8333,87.5 64.5,87.5C 63.1667,86.5 61.8333,85.5 60.5,84.5C 60.5,83.8333 60.5,83.1667 60.5,82.5 Z"/></g>
<g><path style="opacity:1" fill="#a3280c" d="M 25.5,82.5 C 26.7368,83.9649 27.7368,85.6316 28.5,87.5C 28.6287,89.2161 28.962,90.8828 29.5,92.5C 28.8333,92.1667 28.1667,91.8333 27.5,91.5C 26.5942,88.5641 25.9275,85.5641 25.5,82.5 Z"/></g>
<g><path style="opacity:1" fill="#8b2314" d="M 125.5,84.5 C 125.598,86.5529 124.931,88.2196 123.5,89.5C 123.12,87.302 123.787,85.6354 125.5,84.5 Z"/></g>
<g><path style="opacity:1" fill="#c42702" d="M 111.5,79.5 C 107.971,82.371 105.638,86.0377 104.5,90.5C 103.952,93.553 105.118,95.553 108,96.5C 108.651,98.235 108.485,99.9017 107.5,101.5C 101.537,102.496 95.5368,102.829 89.5,102.5C 85.8789,101.627 82.2122,100.961 78.5,100.5C 78.5,99.5 78.5,98.5 78.5,97.5C 86.7197,100.991 95.3864,102.324 104.5,101.5C 104.5,100.167 104.5,98.8333 104.5,97.5C 102.549,97.7733 101.049,97.1066 100,95.5C 98.706,92.6679 98.5393,89.8345 99.5,87C 103.112,83.8896 107.112,81.3896 111.5,79.5 Z"/></g>
<g><path style="opacity:1" fill="#cf2904" d="M 119.5,74.5 C 119.5,75.5 119.5,76.5 119.5,77.5C 116.167,77.5 114.5,79.1667 114.5,82.5C 111.45,81.9232 109.45,83.0899 108.5,86C 109.899,87.0616 110.899,88.395 111.5,90C 110.421,93.8687 112.087,95.702 116.5,95.5C 115.391,96.29 114.058,96.79 112.5,97C 113.337,98.0113 113.67,99.1779 113.5,100.5C 112.448,100.351 111.448,100.517 110.5,101C 111.598,101.77 111.598,102.603 110.5,103.5C 109.474,104.853 108.141,105.853 106.5,106.5C 106.5,105.5 106.5,104.5 106.5,103.5C 100.642,103.822 94.9753,103.489 89.5,102.5C 95.5368,102.829 101.537,102.496 107.5,101.5C 108.485,99.9017 108.651,98.235 108,96.5C 105.118,95.553 103.952,93.553 104.5,90.5C 105.638,86.0377 107.971,82.371 111.5,79.5C 111.833,79.5 112.167,79.5 112.5,79.5C 114.687,77.5784 117.02,75.9117 119.5,74.5 Z"/></g>
<g><path style="opacity:1" fill="#822414" d="M 64.5,87.5 C 64.8333,87.5 65.1667,87.5 65.5,87.5C 66.1667,87.5 66.5,87.8333 66.5,88.5C 66.5,88.8333 66.5,89.1667 66.5,89.5C 65.8333,89.5 65.1667,89.5 64.5,89.5C 64.5,88.8333 64.5,88.1667 64.5,87.5 Z"/></g>
<g><path style="opacity:1" fill="#57130e" d="M 84.5,87.5 C 84.0269,88.9063 83.0269,89.573 81.5,89.5C 81.9731,88.0937 82.9731,87.427 84.5,87.5 Z"/></g>
<g><path style="opacity:1" fill="#a42205" d="M 94.5,76.5 C 94.8333,76.5 95.1667,76.5 95.5,76.5C 94.9889,80.0297 95.6556,83.1963 97.5,86C 94.8747,91.9367 93.208,91.4367 92.5,84.5C 91.5853,85.3279 90.9186,86.3279 90.5,87.5C 91.8333,89.1667 91.8333,90.8333 90.5,92.5C 92.269,94.557 94.269,96.3903 96.5,98C 95.0559,99.0637 93.3893,99.5637 91.5,99.5C 88.1151,98.4946 84.7817,97.4946 81.5,96.5C 86.0226,97.0232 87.0226,95.6899 84.5,92.5C 85.2458,91.2638 85.5792,89.9305 85.5,88.5C 87.9726,88.9118 89.3059,87.9118 89.5,85.5C 91.385,83.9468 92.385,81.9468 92.5,79.5C 93.9063,79.0269 94.573,78.0269 94.5,76.5 Z"/></g>
<g><path style="opacity:1" fill="#da300c" d="M 28.5,87.5 C 29.3495,89.5001 30.8495,90.8334 33,91.5C 34.3261,91.2451 35.3261,90.5784 36,89.5C 37.7512,91.8309 37.5846,94.1642 35.5,96.5C 36.4565,98.0754 37.1231,99.742 37.5,101.5C 35.8207,100.084 34.1541,98.7503 32.5,97.5C 32.573,95.9731 31.9063,94.9731 30.5,94.5C 30.6716,93.5084 30.3382,92.8417 29.5,92.5C 28.962,90.8828 28.6287,89.2161 28.5,87.5 Z"/></g>
<g><path style="opacity:1" fill="#270604" d="M 125.5,82.5 C 125.833,82.5 126.167,82.5 126.5,82.5C 126.833,82.5 127.167,82.5 127.5,82.5C 126.916,85.0034 126.249,87.5034 125.5,90C 125.164,91.0299 124.497,91.5299 123.5,91.5C 123.5,90.8333 123.5,90.1667 123.5,89.5C 124.931,88.2196 125.598,86.5529 125.5,84.5C 125.5,83.8333 125.5,83.1667 125.5,82.5 Z"/></g>
<g><path style="opacity:1" fill="#4c160c" d="M 66.5,89.5 C 66.5,89.1667 66.5,88.8333 66.5,88.5C 70.7978,89.1995 75.1311,89.5328 79.5,89.5C 79.3893,90.1174 79.056,90.6174 78.5,91C 76.1902,91.4966 73.8568,91.6633 71.5,91.5C 69.9505,90.5592 68.2838,89.8925 66.5,89.5 Z"/></g>
<g><path style="opacity:1" fill="#99250e" d="M 66.5,89.5 C 68.2838,89.8925 69.9505,90.5592 71.5,91.5C 71.5,91.8333 71.5,92.1667 71.5,92.5C 69.1523,92.4077 67.4856,91.4077 66.5,89.5 Z"/></g>
<g><path style="opacity:1" fill="#751e12" d="M 122.5,89.5 C 122.833,89.5 123.167,89.5 123.5,89.5C 123.5,90.1667 123.5,90.8333 123.5,91.5C 122.833,91.8333 122.167,92.1667 121.5,92.5C 121.557,91.391 121.89,90.391 122.5,89.5 Z"/></g>
<g><path style="opacity:1" fill="#440b07" d="M 27.5,91.5 C 28.1667,91.8333 28.8333,92.1667 29.5,92.5C 30.3382,92.8417 30.6716,93.5084 30.5,94.5C 28.5,94.5 27.5,93.5 27.5,91.5 Z"/></g>
<g><path style="opacity:1" fill="#881e04" d="M 89.5,85.5 C 89.3059,87.9118 87.9726,88.9118 85.5,88.5C 85.5792,89.9305 85.2458,91.2638 84.5,92.5C 87.0226,95.6899 86.0226,97.0232 81.5,96.5C 79.7839,96.3713 78.1172,96.038 76.5,95.5C 74.326,95.2503 72.6594,94.2503 71.5,92.5C 71.5,92.1667 71.5,91.8333 71.5,91.5C 73.8568,91.6633 76.1902,91.4966 78.5,91C 79.056,90.6174 79.3893,90.1174 79.5,89.5C 80.1667,89.5 80.8333,89.5 81.5,89.5C 83.0269,89.573 84.0269,88.9063 84.5,87.5C 84.8333,87.5 85.1667,87.5 85.5,87.5C 87.0618,87.2671 88.3951,86.6005 89.5,85.5 Z"/></g>
<g><path style="opacity:1" fill="#320902" d="M 123.5,91.5 C 122.833,93.1667 122.167,94.8333 121.5,96.5C 120.833,96.5 120.167,96.5 119.5,96.5C 119.833,95.8333 120.167,95.1667 120.5,94.5C 120.833,93.8333 121.167,93.1667 121.5,92.5C 122.167,92.1667 122.833,91.8333 123.5,91.5 Z"/></g>
<g><path style="opacity:1" fill="#6b160a" d="M 30.5,94.5 C 31.9063,94.9731 32.573,95.9731 32.5,97.5C 31.0937,97.0269 30.427,96.0269 30.5,94.5 Z"/></g>
<g><path style="opacity:1" fill="#bf2f15" d="M 122.5,89.5 C 121.89,90.391 121.557,91.391 121.5,92.5C 121.167,93.1667 120.833,93.8333 120.5,94.5C 118.5,94.5 117.5,95.5 117.5,97.5C 115.838,99.3627 114.171,101.363 112.5,103.5C 111.833,103.5 111.167,103.5 110.5,103.5C 111.598,102.603 111.598,101.77 110.5,101C 111.448,100.517 112.448,100.351 113.5,100.5C 113.67,99.1779 113.337,98.0113 112.5,97C 114.058,96.79 115.391,96.29 116.5,95.5C 118.889,93.7779 120.889,91.7779 122.5,89.5 Z"/></g>
<g><path style="opacity:1" fill="#792419" d="M 120.5,94.5 C 120.167,95.1667 119.833,95.8333 119.5,96.5C 118.833,96.8333 118.167,97.1667 117.5,97.5C 117.5,95.5 118.5,94.5 120.5,94.5 Z"/></g>
<g><path style="opacity:1" fill="#70170e" d="M 32.5,97.5 C 34.1541,98.7503 35.8207,100.084 37.5,101.5C 38.8333,103.167 40.1667,104.833 41.5,106.5C 37.5,104.5 34.5,101.5 32.5,97.5 Z"/></g>
<g><path style="opacity:1" fill="#591810" d="M 117.5,97.5 C 117.031,100.643 115.364,102.977 112.5,104.5C 112.5,104.167 112.5,103.833 112.5,103.5C 114.171,101.363 115.838,99.3627 117.5,97.5 Z"/></g>
<g><path style="opacity:1" fill="#130205" d="M 119.5,96.5 C 120.167,96.5 120.833,96.5 121.5,96.5C 119.432,99.1245 118.099,102.124 117.5,105.5C 115.958,106.747 114.458,106.747 113,105.5C 110.787,107.249 109.787,109.249 110,111.5C 108.644,110.62 107.144,110.286 105.5,110.5C 105.833,109.833 106.167,109.167 106.5,108.5C 108.772,107.559 110.772,106.226 112.5,104.5C 115.364,102.977 117.031,100.643 117.5,97.5C 118.167,97.1667 118.833,96.8333 119.5,96.5 Z"/></g>
<g><path style="opacity:1" fill="#9d2d1b" d="M 110.5,103.5 C 111.167,103.5 111.833,103.5 112.5,103.5C 112.5,103.833 112.5,104.167 112.5,104.5C 110.772,106.226 108.772,107.559 106.5,108.5C 106.5,108.167 106.5,107.833 106.5,107.5C 106.5,107.167 106.5,106.833 106.5,106.5C 108.141,105.853 109.474,104.853 110.5,103.5 Z"/></g>
<g><path style="opacity:1" fill="#bf3112" d="M 106.5,107.5 C 106.5,107.833 106.5,108.167 106.5,108.5C 106.167,109.167 105.833,109.833 105.5,110.5C 105.167,110.5 104.833,110.5 104.5,110.5C 102.62,110.229 101.287,110.896 100.5,112.5C 100.167,112.5 99.8333,112.5 99.5,112.5C 100.43,108.907 102.763,107.241 106.5,107.5 Z"/></g>
<g><path style="opacity:1" fill="#b53216" d="M 45.5,108.5 C 47.0269,108.427 48.0269,109.094 48.5,110.5C 46.9731,110.573 45.9731,109.906 45.5,108.5 Z"/></g>
<g><path style="opacity:1" fill="#7a1f13" d="M 43.5,108.5 C 44.1667,108.5 44.8333,108.5 45.5,108.5C 45.9731,109.906 46.9731,110.573 48.5,110.5C 49.5,110.833 50.1667,111.5 50.5,112.5C 47.4542,112.275 45.1209,110.942 43.5,108.5 Z"/></g>
<g><path style="opacity:1" fill="#64170e" d="M 104.5,110.5 C 103.486,111.674 102.153,112.34 100.5,112.5C 101.287,110.896 102.62,110.229 104.5,110.5 Z"/></g>
<g><path style="opacity:1" fill="#65130e" d="M 50.5,113.5 C 52.9029,113.448 55.2362,113.781 57.5,114.5C 58.7095,114.932 59.7095,115.599 60.5,116.5C 56.7417,116.605 53.4083,115.605 50.5,113.5 Z"/></g>
<g><path style="opacity:1" fill="#b43118" d="M 50.5,113.5 C 50.5,113.167 50.5,112.833 50.5,112.5C 52.5273,112.338 54.5273,112.505 56.5,113C 57.056,113.383 57.3893,113.883 57.5,114.5C 55.2362,113.781 52.9029,113.448 50.5,113.5 Z"/></g>
<g><path style="opacity:1" fill="#51110c" d="M 99.5,112.5 C 97.8791,114.942 95.5458,116.275 92.5,116.5C 92.5,116.167 92.5,115.833 92.5,115.5C 93.9952,115.011 95.3285,114.345 96.5,113.5C 97.209,112.596 98.209,112.263 99.5,112.5 Z"/></g>
<g><path style="opacity:1" fill="#d8310d" d="M 37.5,101.5 C 41.2427,102.411 44.2427,104.411 46.5,107.5C 47.6226,106.456 48.9559,105.79 50.5,105.5C 61.1222,107.512 61.1222,108.179 50.5,107.5C 50.5,108.5 50.5,109.5 50.5,110.5C 52.8568,110.337 55.1902,110.503 57.5,111C 58.2738,113.44 59.9405,114.773 62.5,115C 74.0012,115.746 85.3345,115.246 96.5,113.5C 95.3285,114.345 93.9952,115.011 92.5,115.5C 89.4467,115.111 86.78,115.777 84.5,117.5C 76.4827,117.499 68.4827,117.166 60.5,116.5C 59.7095,115.599 58.7095,114.932 57.5,114.5C 57.3893,113.883 57.056,113.383 56.5,113C 54.5273,112.505 52.5273,112.338 50.5,112.5C 50.1667,111.5 49.5,110.833 48.5,110.5C 48.0269,109.094 47.0269,108.427 45.5,108.5C 44.8333,108.5 44.1667,108.5 43.5,108.5C 42.8333,107.833 42.1667,107.167 41.5,106.5C 40.1667,104.833 38.8333,103.167 37.5,101.5 Z"/></g>
<g><path style="opacity:1" fill="#882713" d="M 92.5,115.5 C 92.5,115.833 92.5,116.167 92.5,116.5C 90.7839,116.629 89.1172,116.962 87.5,117.5C 86.5,117.5 85.5,117.5 84.5,117.5C 86.78,115.777 89.4467,115.111 92.5,115.5 Z"/></g>
<g><path style="opacity:1" fill="#771d0f" d="M 60.5,116.5 C 68.4827,117.166 76.4827,117.499 84.5,117.5C 85.5,117.5 86.5,117.5 87.5,117.5C 79.0099,118.657 70.3433,118.824 61.5,118C 60.944,117.617 60.6107,117.117 60.5,116.5 Z"/></g>
</svg>
