<svg version="1.1" id="Layer_1" xmlns="http://www.w3.org/2000/svg" xmlns:xlink="http://www.w3.org/1999/xlink" x="0px" y="0px"
	 width="100%" viewBox="0 0 1024 1024" enable-background="new 0 0 1024 1024" xml:space="preserve">
<path fill="#0D0D0D" opacity="1.000000" stroke="none" 
	d="
M647.000000,1025.000000 
	C431.333344,1025.000000 216.166672,1025.000000 1.000000,1025.000000 
	C1.000000,683.666687 1.000000,342.333344 1.000000,1.000000 
	C342.333344,1.000000 683.666687,1.000000 1025.000000,1.000000 
	C1025.000000,342.333344 1025.000000,683.666687 1025.000000,1025.000000 
	C899.166687,1025.000000 773.333313,1025.000000 647.000000,1025.000000 
M334.702362,198.605743 
	C334.137970,199.017990 333.573578,199.430252 332.280731,200.078064 
	C325.603119,203.573822 317.814819,205.863083 312.458496,210.794052 
	C297.066833,224.963409 282.658722,240.201172 267.471252,255.367264 
	C267.352814,255.694168 267.234406,256.021088 267.172546,256.721619 
	C267.172546,256.721619 266.922852,257.005310 266.243408,257.136353 
	C265.849640,259.098511 265.455841,261.060638 265.026093,263.956635 
	C265.023132,418.705261 265.018555,573.453918 265.033569,728.202515 
	C265.033752,730.348022 265.055359,732.535706 265.447845,734.632385 
	C268.299347,749.867310 277.168701,760.833069 290.096497,769.580322 
	C291.405579,770.031982 292.714630,770.483643 294.682556,770.975281 
	C295.457275,771.351196 296.231995,771.727112 297.138702,772.774048 
	C299.087372,773.197998 301.036041,773.621887 303.664856,773.994263 
	C304.113129,774.052124 304.561432,774.109985 305.093231,774.730957 
	C305.742950,774.783325 306.392670,774.835632 307.709595,774.769897 
	C308.142731,774.897217 308.575867,775.024475 309.228210,775.913391 
	C310.922211,776.272583 312.615906,776.944031 314.310242,776.945679 
	C370.836151,777.000793 427.362091,777.001587 483.888000,776.947388 
	C485.603149,776.945740 487.317627,776.272888 489.807312,775.705078 
	C491.149109,775.705078 492.490906,775.705078 494.528198,775.705078 
	C487.896332,769.886169 481.775513,764.855286 476.040070,759.417969 
	C460.605072,744.784912 445.969055,729.311890 434.470642,711.390259 
	C426.166779,698.447693 419.424896,684.502991 412.461700,670.622375 
	C411.676392,669.417175 410.891113,668.212036 409.748108,666.448730 
	C409.495850,665.633606 409.243561,664.818481 409.431244,663.672485 
	C408.993683,663.117493 408.556152,662.562500 407.762238,661.411072 
	C407.231903,659.932983 406.701569,658.454895 406.613312,656.527954 
	C406.568024,651.026367 406.152924,645.663269 400.966888,641.384094 
	C400.909210,640.949524 400.851532,640.514893 401.354279,640.005676 
	C400.954681,639.340149 400.555084,638.674622 399.955414,637.374084 
	C399.925323,636.934814 399.895233,636.495605 400.395844,635.676758 
	C400.366913,633.215942 402.327637,630.090393 397.955811,628.364868 
	C397.961945,627.913147 397.968079,627.461487 398.558167,626.717407 
	C399.016022,623.465820 400.242615,620.001648 395.977234,617.239807 
	C395.912201,616.192322 395.847168,615.144897 396.350067,613.685730 
	C395.943878,612.459839 395.537720,611.234009 394.885742,609.234070 
	C394.928162,608.154602 394.970551,607.075073 395.750763,605.821960 
	C397.661377,602.443176 398.068817,599.336060 394.004303,596.159302 
	C394.041565,594.437073 394.078796,592.714844 394.878113,590.772156 
	C395.222260,590.246399 395.863007,589.722778 395.866821,589.194519 
	C395.943817,578.623718 395.989288,568.052002 395.884766,557.481995 
	C395.876526,556.651001 394.719971,555.831360 393.915955,554.087219 
	C393.976288,549.056030 394.036591,544.024780 394.757568,538.852478 
	C394.536621,537.570435 394.315674,536.288330 393.912506,534.083801 
	C393.990509,519.719604 394.068512,505.355438 394.902924,490.777008 
	C395.143219,489.571899 395.383514,488.366760 395.908325,486.583069 
	C399.693573,479.287598 406.426605,476.813080 413.882080,474.960754 
	C435.279663,469.644531 456.823425,464.744232 477.888977,458.304230 
	C510.057098,448.470093 538.532410,431.122681 566.098755,412.232605 
	C579.634705,402.956970 591.131653,403.038818 604.486450,412.399963 
	C640.234558,437.457886 679.170776,455.505646 721.685242,465.660706 
	C731.564514,468.020477 741.484619,470.209076 751.762390,472.562683 
	C751.920532,469.569672 752.041443,467.280090 752.903015,464.779205 
	C754.276855,461.399384 755.536438,458.028259 752.005188,454.082275 
	C752.056946,439.051697 752.108643,424.021149 752.918335,408.769012 
	C753.275879,407.740601 753.941895,406.713135 753.945251,405.683594 
	C754.007507,386.297150 754.023071,366.910278 753.913086,347.524261 
	C753.906433,346.349335 752.771790,345.180878 752.006653,343.367340 
	C751.400818,342.525848 750.794983,341.684357 750.015259,340.187653 
	C711.211975,301.406158 672.458496,262.574554 633.564026,223.884720 
	C625.636780,215.999222 617.179321,208.646729 608.855164,200.239151 
	C607.262817,199.583221 605.671143,198.355240 604.078125,198.353516 
	C529.866394,198.273682 455.654663,198.313095 381.442902,198.303238 
	C368.636139,198.301529 355.829376,198.142853 342.645325,197.553253 
	C341.766846,197.977539 340.888397,198.401840 339.192352,198.991669 
	C337.802368,199.013153 336.412354,199.034653 334.702362,198.605743 
M552.467834,777.048828 
	C561.292358,782.702148 570.242371,788.171265 578.900208,794.069214 
	C585.408630,798.502808 591.349243,798.259827 597.761230,793.908569 
	C609.042664,786.252686 620.613953,779.024719 631.918152,771.401428 
	C666.851074,747.843323 696.478943,719.061340 718.420044,682.813232 
	C736.448792,653.028503 746.237549,620.878052 746.119690,585.882874 
	C746.041138,562.551086 746.100464,539.218811 746.089661,515.886780 
	C746.085693,507.278870 744.599731,505.733856 736.240967,503.869598 
	C712.253906,498.519623 688.508545,492.317444 665.587158,483.276215 
	C639.786316,473.099274 615.734802,459.656921 592.737305,444.273743 
	C588.079285,441.157959 584.133179,441.449127 579.434143,444.326324 
	C563.706482,453.956238 548.361755,464.496979 531.759766,472.337189 
	C513.421875,480.997162 494.049194,487.633484 474.763977,494.061188 
	C461.754578,498.397217 448.128448,500.897217 434.752350,504.110901 
	C429.975403,505.258575 426.907379,507.827942 426.945557,512.950378 
	C427.160736,541.833801 426.785645,570.743286 427.924042,599.592102 
	C429.082855,628.959229 439.698303,655.622803 454.716919,680.625854 
	C478.916748,720.913757 512.958435,751.243958 552.467834,777.048828 
M752.481934,473.574158 
	C752.481934,473.574158 752.425354,473.475342 752.481934,473.574158 
M408.558044,657.512878 
	C408.558044,657.512878 408.477386,657.554688 408.558044,657.512878 
z"/>
<path fill="#F6F4F3" opacity="1.000000" stroke="none" 
	d="
M290.026428,768.918457 
	C277.168701,760.833069 268.299347,749.867310 265.447845,734.632385 
	C265.055359,732.535706 265.033752,730.348022 265.033569,728.202515 
	C265.018555,573.453918 265.023132,418.705261 265.358826,263.304993 
	C266.101959,260.770660 266.512421,258.887970 266.922852,257.005310 
	C266.922852,257.005310 267.172546,256.721619 267.393372,256.399048 
	C267.697510,255.724014 267.780823,255.371552 267.864136,255.019073 
	C282.658722,240.201172 297.066833,224.963409 312.458496,210.794052 
	C317.814819,205.863083 325.603119,203.573822 332.937378,200.012131 
	C334.070160,199.649506 334.546265,199.352829 335.022369,199.056152 
	C336.412354,199.034653 337.802368,199.013153 339.924622,198.975006 
	C341.445435,198.657791 342.234039,198.357239 343.022614,198.056702 
	C355.829376,198.142853 368.636139,198.301529 381.442902,198.303238 
	C455.654663,198.313095 529.866394,198.273682 604.078125,198.353516 
	C605.671143,198.355240 607.262817,199.583221 608.828735,200.742966 
	C608.802307,201.246780 608.960022,201.450043 608.598633,201.756775 
	C608.092529,203.875626 607.823059,205.687653 607.821777,207.499863 
	C607.799377,240.300919 607.803040,273.101990 607.827271,305.903076 
	C607.828735,307.892334 608.047607,309.881470 608.121277,312.266357 
	C608.717834,315.029327 609.169739,317.467621 610.030396,319.751953 
	C614.621704,331.938293 627.314941,341.492340 639.316650,341.823792 
	C639.512451,341.871979 639.914978,341.847565 640.370667,341.914459 
	C643.588867,341.938843 646.351440,341.896301 649.572021,341.885742 
	C656.648071,341.897766 663.265930,341.877838 670.351562,341.924225 
	C674.916443,341.944397 679.013489,341.898224 683.507507,341.882996 
	C685.231140,341.893494 686.557861,341.872986 688.356323,341.919220 
	C696.256409,341.941895 703.684692,341.897858 711.559387,341.885071 
	C715.296997,341.894592 718.588135,341.872803 722.347412,341.917114 
	C726.915283,341.938263 731.015076,341.893311 735.525452,341.879456 
	C737.583679,341.889404 739.231323,341.868286 741.327209,341.913879 
	C743.884644,341.927277 745.993896,341.873962 748.351685,341.792786 
	C748.751404,341.510620 748.902466,341.256348 749.343262,341.003571 
	C749.818298,340.951019 750.003723,340.896942 750.189148,340.842865 
	C750.794983,341.684357 751.400818,342.525848 752.016724,344.152130 
	C752.071350,366.288147 752.115906,387.639343 752.160400,408.990570 
	C752.108643,424.021149 752.056946,439.051697 752.015747,454.995026 
	C752.071716,458.935364 752.117065,461.962921 752.162415,464.990509 
	C752.041443,467.280090 751.920532,469.569672 751.762390,472.562683 
	C741.484619,470.209076 731.564514,468.020477 721.685242,465.660706 
	C679.170776,455.505646 640.234558,437.457886 604.486450,412.399963 
	C591.131653,403.038818 579.634705,402.956970 566.098755,412.232605 
	C538.532410,431.122681 510.057098,448.470093 477.888977,458.304230 
	C456.823425,464.744232 435.279663,469.644531 413.882080,474.960754 
	C406.426605,476.813080 399.693573,479.287598 395.497314,487.116760 
	C394.773041,488.764069 394.459778,489.877655 394.146484,490.991241 
	C394.068512,505.355438 393.990509,519.719604 393.924866,534.939087 
	C393.990479,536.860779 394.043701,537.927185 394.096924,538.993591 
	C394.036591,544.024780 393.976288,549.056030 393.928009,555.009277 
	C393.998749,567.618408 394.057404,579.305481 394.116058,590.992615 
	C394.078796,592.714844 394.041565,594.437073 394.027283,597.014526 
	C394.371124,600.578369 394.692047,603.286987 395.012970,605.995605 
	C394.970551,607.075073 394.928162,608.154602 394.959381,609.987671 
	C395.282715,611.860046 395.532410,612.978699 395.782135,614.097412 
	C395.847168,615.144897 395.912201,616.192322 396.027069,618.022156 
	C396.709351,621.539612 397.341766,624.274658 397.974213,627.009766 
	C397.968079,627.461487 397.961945,627.913147 398.012756,629.061890 
	C398.668213,631.858032 399.266693,633.957214 399.865173,636.056335 
	C399.895233,636.495605 399.925323,636.934814 400.000305,637.983093 
	C400.294739,639.088196 400.544312,639.584229 400.793884,640.080322 
	C400.851532,640.514893 400.909210,640.949524 401.066650,642.074219 
	C402.834686,647.501831 404.502960,652.239319 406.171234,656.976807 
	C406.701569,658.454895 407.231903,659.932983 407.909027,662.002563 
	C408.367645,663.063782 408.679474,663.533569 408.991302,664.003357 
	C409.243561,664.818481 409.495850,665.633606 409.912415,667.056091 
	C410.713287,668.777405 411.349823,669.891296 411.986359,671.005249 
	C419.424896,684.502991 426.166779,698.447693 434.470642,711.390259 
	C445.969055,729.311890 460.605072,744.784912 476.040070,759.417969 
	C481.775513,764.855286 487.896332,769.886169 494.528198,775.705078 
	C492.490906,775.705078 491.149109,775.705078 489.036560,775.667847 
	C428.513519,775.471008 368.761261,775.311401 309.009003,775.151733 
	C308.575867,775.024475 308.142731,774.897217 307.140045,774.673340 
	C306.050232,774.440491 305.529968,774.304199 305.009705,774.167908 
	C304.561432,774.109985 304.113129,774.052124 303.065369,773.778809 
	C300.646179,773.076538 298.826447,772.589783 297.006683,772.103027 
	C296.231995,771.727112 295.457275,771.351196 294.180664,770.673096 
	C292.461334,769.886780 291.243896,769.402649 290.026428,768.918457 
M352.173340,338.629303 
	C354.317413,338.795441 356.461456,339.105469 358.605591,339.106506 
	C403.385742,339.128235 448.165863,339.124481 492.946014,339.098755 
	C499.933350,339.094727 506.920654,338.959167 514.635254,338.911011 
	C517.061401,337.544739 519.755310,336.499725 521.858826,334.746368 
	C526.469604,330.903076 527.084656,325.505585 525.746887,320.158630 
	C524.594299,315.551788 521.985413,311.647980 515.838074,310.365509 
	C514.025024,310.208069 512.211975,309.914062 510.398865,309.913055 
	C459.127563,309.884735 407.856293,309.883789 356.584991,309.892822 
	C355.092072,309.893066 353.599182,310.049561 351.381836,310.091827 
	C343.997223,313.138062 340.524048,318.198914 340.958221,325.280365 
	C341.361572,331.859070 345.101501,336.402893 352.173340,338.629303 
M513.978027,375.993256 
	C460.856628,375.950043 407.735260,375.905426 354.613861,375.877014 
	C353.789703,375.876556 352.965393,376.075775 351.418884,376.142456 
	C343.780518,379.171783 340.480499,384.083038 340.959839,391.708008 
	C341.372345,398.269714 345.922943,403.220245 353.999390,405.011200 
	C406.617767,405.019501 459.236176,405.029694 511.854553,405.025421 
	C513.181885,405.025330 514.509155,404.865997 516.514160,404.642944 
	C524.699707,400.543884 526.911865,396.785400 526.146423,388.277496 
	C525.615417,382.374481 521.592224,378.043610 513.978027,375.993256 
z"/>
<path fill="#C62121" opacity="1.000000" stroke="none" 
	d="
M552.166382,776.850830 
	C512.958435,751.243958 478.916748,720.913757 454.716919,680.625854 
	C439.698303,655.622803 429.082855,628.959229 427.924042,599.592102 
	C426.785645,570.743286 427.160736,541.833801 426.945557,512.950378 
	C426.907379,507.827942 429.975403,505.258575 434.752350,504.110901 
	C448.128448,500.897217 461.754578,498.397217 474.763977,494.061188 
	C494.049194,487.633484 513.421875,480.997162 531.759766,472.337189 
	C548.361755,464.496979 563.706482,453.956238 579.434143,444.326324 
	C584.133179,441.449127 588.079285,441.157959 592.737305,444.273743 
	C615.734802,459.656921 639.786316,473.099274 665.587158,483.276215 
	C688.508545,492.317444 712.253906,498.519623 736.240967,503.869598 
	C744.599731,505.733856 746.085693,507.278870 746.089661,515.886780 
	C746.100464,539.218811 746.041138,562.551086 746.119690,585.882874 
	C746.237549,620.878052 736.448792,653.028503 718.420044,682.813232 
	C696.478943,719.061340 666.851074,747.843323 631.918152,771.401428 
	C620.613953,779.024719 609.042664,786.252686 597.761230,793.908569 
	C591.349243,798.259827 585.408630,798.502808 578.900208,794.069214 
	C570.242371,788.171265 561.292358,782.702148 552.166382,776.850830 
M609.556274,592.056885 
	C594.783081,606.137390 580.009888,620.217834 565.160095,634.371338 
	C559.776978,629.329407 554.587891,624.737061 549.705566,619.838928 
	C540.423218,610.526489 531.402161,600.953247 522.107727,591.653137 
	C515.336914,584.878235 506.762817,583.960876 499.195526,589.674622 
	C495.016022,592.830444 491.397552,596.911804 488.143921,601.060364 
	C484.834595,605.279968 485.402557,611.583496 488.772034,615.850525 
	C490.210907,617.672668 491.834290,619.360718 493.470795,621.013672 
	C515.380188,643.143005 537.301819,665.260071 559.232239,687.368408 
	C564.758606,692.939636 574.385315,693.195496 579.739075,687.599487 
	C589.853271,677.027710 599.862366,666.351074 609.733582,655.552063 
	C629.116638,634.347046 648.390503,613.042114 667.678223,591.750061 
	C675.713257,582.880066 683.872864,574.110535 691.593872,564.972473 
	C697.660400,557.792419 695.901978,546.040955 688.357361,539.467407 
	C681.773193,533.730591 669.597229,533.534546 663.453796,539.738525 
	C646.005249,557.358826 627.912537,574.341125 609.556274,592.056885 
z"/>
<path fill="#AEAEAE" opacity="1.000000" stroke="none" 
	d="
M711.112976,341.853821 
	C703.684692,341.897858 696.256409,341.941895 688.128174,341.682220 
	C685.988953,341.536346 684.549805,341.694183 683.110596,341.852051 
	C679.013489,341.898224 674.916443,341.944397 670.048462,341.659729 
	C662.556396,341.503876 655.835205,341.678802 649.113953,341.853760 
	C646.351440,341.896301 643.588867,341.938843 640.308472,341.781616 
	C639.790649,341.581848 639.415222,341.475586 639.415222,341.475586 
	C639.415222,341.475586 639.120850,341.775635 639.120850,341.775635 
	C627.314941,341.492340 614.621704,331.938293 610.030396,319.751953 
	C609.169739,317.467621 608.717834,315.029327 608.384888,311.963287 
	C608.792908,310.113037 608.980835,308.961609 608.980957,307.810150 
	C608.985291,272.356781 608.971191,236.903412 608.959961,201.450043 
	C608.960022,201.450043 608.802307,201.246780 608.884277,201.147659 
	C617.179321,208.646729 625.636780,215.999222 633.564026,223.884720 
	C672.458496,262.574554 711.211975,301.406158 750.102173,340.515259 
	C750.003723,340.896942 749.818298,340.951019 749.145752,341.093140 
	C748.390869,341.322632 748.205688,341.535797 748.103088,341.820648 
	C745.993896,341.873962 743.884644,341.927277 741.080139,341.672943 
	C738.628174,341.526306 736.871521,341.687347 735.114868,341.848358 
	C731.015076,341.893311 726.915283,341.938263 722.055359,341.659119 
	C717.901123,341.507935 714.507080,341.680878 711.112976,341.853821 
z"/>
<path fill="#010101" opacity="1.000000" stroke="none" 
	d="
M309.118591,775.532593 
	C368.761261,775.311401 428.513519,775.471008 488.649109,775.771851 
	C487.317627,776.272888 485.603149,776.945740 483.888000,776.947388 
	C427.362091,777.001587 370.836151,777.000793 314.310242,776.945679 
	C312.615906,776.944031 310.922211,776.272583 309.118591,775.532593 
z"/>
<path fill="#010101" opacity="1.000000" stroke="none" 
	d="
M752.539429,408.879791 
	C752.115906,387.639343 752.071350,366.288147 752.094360,344.473175 
	C752.771790,345.180878 753.906433,346.349335 753.913086,347.524261 
	C754.023071,366.910278 754.007507,386.297150 753.945251,405.683594 
	C753.941895,406.713135 753.275879,407.740601 752.539429,408.879791 
z"/>
<path fill="#010101" opacity="1.000000" stroke="none" 
	d="
M394.497070,590.882385 
	C394.057404,579.305481 393.998749,567.618408 394.018585,555.468872 
	C394.719971,555.831360 395.876526,556.651001 395.884766,557.481995 
	C395.989288,568.052002 395.943817,578.623718 395.866821,589.194519 
	C395.863007,589.722778 395.222260,590.246399 394.497070,590.882385 
z"/>
<path fill="#010101" opacity="1.000000" stroke="none" 
	d="
M406.392273,656.752380 
	C404.502960,652.239319 402.834686,647.501831 401.170380,642.387085 
	C406.152924,645.663269 406.568024,651.026367 406.392273,656.752380 
z"/>
<path fill="#010101" opacity="1.000000" stroke="none" 
	d="
M395.381866,605.908813 
	C394.692047,603.286987 394.371124,600.578369 394.104248,597.439453 
	C398.068817,599.336060 397.661377,602.443176 395.381866,605.908813 
z"/>
<path fill="#010101" opacity="1.000000" stroke="none" 
	d="
M398.266174,626.863586 
	C397.341766,624.274658 396.709351,621.539612 396.113251,618.406616 
	C400.242615,620.001648 399.016022,623.465820 398.266174,626.863586 
z"/>
<path fill="#010101" opacity="1.000000" stroke="none" 
	d="
M752.532715,464.884857 
	C752.117065,461.962921 752.071716,458.935364 752.093506,455.458557 
	C755.536438,458.028259 754.276855,461.399384 752.532715,464.884857 
z"/>
<path fill="#010101" opacity="1.000000" stroke="none" 
	d="
M400.130493,635.866577 
	C399.266693,633.957214 398.668213,631.858032 398.119019,629.384277 
	C402.327637,630.090393 400.366913,633.215942 400.130493,635.866577 
z"/>
<path fill="#010101" opacity="1.000000" stroke="none" 
	d="
M266.583130,257.070831 
	C266.512421,258.887970 266.101959,260.770660 265.376801,262.838074 
	C265.455841,261.060638 265.849640,259.098511 266.583130,257.070831 
z"/>
<path fill="#010101" opacity="1.000000" stroke="none" 
	d="
M297.072693,772.438538 
	C298.826447,772.589783 300.646179,773.076538 302.725281,773.804565 
	C301.036041,773.621887 299.087372,773.197998 297.072693,772.438538 
z"/>
<path fill="#010101" opacity="1.000000" stroke="none" 
	d="
M412.224030,670.813843 
	C411.349823,669.891296 410.713287,668.777405 410.091309,667.335144 
	C410.891113,668.212036 411.676392,669.417175 412.224030,670.813843 
z"/>
<path fill="#010101" opacity="1.000000" stroke="none" 
	d="
M394.427246,538.923035 
	C394.043701,537.927185 393.990479,536.860779 394.015991,535.400330 
	C394.315674,536.288330 394.536621,537.570435 394.427246,538.923035 
z"/>
<path fill="#010101" opacity="1.000000" stroke="none" 
	d="
M290.061462,769.249390 
	C291.243896,769.402649 292.461334,769.886780 293.851227,770.653198 
	C292.714630,770.483643 291.405579,770.031982 290.061462,769.249390 
z"/>
<path fill="#010101" opacity="1.000000" stroke="none" 
	d="
M396.066101,613.891602 
	C395.532410,612.978699 395.282715,611.860046 395.082275,610.374756 
	C395.537720,611.234009 395.943878,612.459839 396.066101,613.891602 
z"/>
<path fill="#010101" opacity="1.000000" stroke="none" 
	d="
M342.833984,197.804977 
	C342.234039,198.357239 341.445435,198.657791 340.333374,198.892242 
	C340.888397,198.401840 341.766846,197.977539 342.833984,197.804977 
z"/>
<path fill="#010101" opacity="1.000000" stroke="none" 
	d="
M394.524719,490.884125 
	C394.459778,489.877655 394.773041,488.764069 395.355042,487.406067 
	C395.383514,488.366760 395.143219,489.571899 394.524719,490.884125 
z"/>
<path fill="#010101" opacity="1.000000" stroke="none" 
	d="
M401.074097,640.042969 
	C400.544312,639.584229 400.294739,639.088196 400.100342,638.300598 
	C400.555084,638.674622 400.954681,639.340149 401.074097,640.042969 
z"/>
<path fill="#010101" opacity="1.000000" stroke="none" 
	d="
M409.211273,663.837891 
	C408.679474,663.533569 408.367645,663.063782 408.087219,662.300781 
	C408.556152,662.562500 408.993683,663.117493 409.211273,663.837891 
z"/>
<path fill="#010101" opacity="1.000000" stroke="none" 
	d="
M305.051453,774.449463 
	C305.529968,774.304199 306.050232,774.440491 306.806458,774.732361 
	C306.392670,774.835632 305.742950,774.783325 305.051453,774.449463 
z"/>
<path fill="#010101" opacity="1.000000" stroke="none" 
	d="
M334.862366,198.830933 
	C334.546265,199.352829 334.070160,199.649506 333.301636,199.894348 
	C333.573578,199.430252 334.137970,199.017990 334.862366,198.830933 
z"/>
<path fill="#010101" opacity="1.000000" stroke="none" 
	d="
M752.453613,473.524750 
	C752.425354,473.475342 752.481934,473.574158 752.453613,473.524750 
z"/>
<path fill="#010101" opacity="1.000000" stroke="none" 
	d="
M267.667694,255.193176 
	C267.780823,255.371552 267.697510,255.724014 267.365051,256.212219 
	C267.234406,256.021088 267.352814,255.694168 267.667694,255.193176 
z"/>
<path fill="#010101" opacity="1.000000" stroke="none" 
	d="
M408.517700,657.533813 
	C408.477386,657.554688 408.558044,657.512878 408.517700,657.533813 
z"/>
<path fill="#ADADAD" opacity="1.000000" stroke="none" 
	d="
M353.081421,404.894867 
	C345.922943,403.220245 341.372345,398.269714 340.959839,391.708008 
	C340.480499,384.083038 343.780518,379.171783 352.086609,376.418427 
	C353.740631,376.794556 354.726898,376.982117 355.713196,376.982361 
	C407.351562,376.995544 458.989960,376.999573 510.628296,376.956848 
	C512.047607,376.955658 513.466553,376.434265 514.885681,376.155457 
	C521.592224,378.043610 525.615417,382.374481 526.146423,388.277496 
	C526.911865,396.785400 524.699707,400.543884 515.866455,404.461975 
	C514.396912,404.189178 513.575134,404.017212 512.753357,404.016998 
	C460.940979,404.004181 409.128571,403.998322 357.316223,404.042542 
	C355.904388,404.043732 354.493011,404.598328 353.081421,404.894867 
z"/>
<path fill="#ADADAD" opacity="1.000000" stroke="none" 
	d="
M516.546509,310.965668 
	C521.985413,311.647980 524.594299,315.551788 525.746887,320.158630 
	C527.084656,325.505585 526.469604,330.903076 521.858826,334.746368 
	C519.755310,336.499725 517.061401,337.544739 513.973083,338.621918 
	C512.160461,338.221558 511.009979,338.013092 509.859497,338.013000 
	C457.058655,338.009186 404.257782,338.023590 351.456940,338.035828 
	C345.101501,336.402893 341.361572,331.859070 340.958221,325.280365 
	C340.524048,318.198914 343.997223,313.138062 352.045410,310.381989 
	C353.859772,310.780762 355.010498,310.984222 356.161255,310.984314 
	C409.623016,310.989227 463.084747,310.976440 516.546509,310.965668 
z"/>
<path fill="#929394" opacity="1.000000" stroke="none" 
	d="
M516.192261,310.665588 
	C463.084747,310.976440 409.623016,310.989227 356.161255,310.984314 
	C355.010498,310.984222 353.859772,310.780762 352.407654,310.402679 
	C353.599182,310.049561 355.092072,309.893066 356.584991,309.892822 
	C407.856293,309.883789 459.127563,309.884735 510.398865,309.913055 
	C512.211975,309.914062 514.025024,310.208069 516.192261,310.665588 
z"/>
<path fill="#929394" opacity="1.000000" stroke="none" 
	d="
M514.431885,376.074341 
	C513.466553,376.434265 512.047607,376.955658 510.628296,376.956848 
	C458.989960,376.999573 407.351562,376.995544 355.713196,376.982361 
	C354.726898,376.982117 353.740631,376.794556 352.447754,376.438110 
	C352.965393,376.075775 353.789703,375.876556 354.613861,375.877014 
	C407.735260,375.905426 460.856628,375.950043 514.431885,376.074341 
z"/>
<path fill="#929394" opacity="1.000000" stroke="none" 
	d="
M353.540405,404.953033 
	C354.493011,404.598328 355.904388,404.043732 357.316223,404.042542 
	C409.128571,403.998322 460.940979,404.004181 512.753357,404.016998 
	C513.575134,404.017212 514.396912,404.189178 515.527588,404.530945 
	C514.509155,404.865997 513.181885,405.025330 511.854553,405.025421 
	C459.236176,405.029694 406.617767,405.019501 353.540405,404.953033 
z"/>
<path fill="#929394" opacity="1.000000" stroke="none" 
	d="
M351.815125,338.332581 
	C404.257782,338.023590 457.058655,338.009186 509.859497,338.013000 
	C511.009979,338.013092 512.160461,338.221558 513.609436,338.608643 
	C506.920654,338.959167 499.933350,339.094727 492.946014,339.098755 
	C448.165863,339.124481 403.385742,339.128235 358.605591,339.106506 
	C356.461456,339.105469 354.317413,338.795441 351.815125,338.332581 
z"/>
<path fill="#929394" opacity="1.000000" stroke="none" 
	d="
M608.598572,201.756775 
	C608.971191,236.903412 608.985291,272.356781 608.980957,307.810150 
	C608.980835,308.961609 608.792908,310.113037 608.428955,311.567566 
	C608.047607,309.881470 607.828735,307.892334 607.827271,305.903076 
	C607.803040,273.101990 607.799377,240.300919 607.821777,207.499863 
	C607.823059,205.687653 608.092529,203.875626 608.598572,201.756775 
z"/>
<path fill="#929394" opacity="1.000000" stroke="none" 
	d="
M649.572021,341.885742 
	C655.835205,341.678802 662.556396,341.503876 669.580750,341.593384 
	C663.265930,341.877838 656.648071,341.897766 649.572021,341.885742 
z"/>
<path fill="#929394" opacity="1.000000" stroke="none" 
	d="
M711.559387,341.885071 
	C714.507080,341.680878 717.901123,341.507935 721.587280,341.593018 
	C718.588135,341.872803 715.296997,341.894592 711.559387,341.885071 
z"/>
<path fill="#929394" opacity="1.000000" stroke="none" 
	d="
M735.525452,341.879456 
	C736.871521,341.687347 738.628174,341.526306 740.631897,341.606232 
	C739.231323,341.868286 737.583679,341.889404 735.525452,341.879456 
z"/>
<path fill="#929394" opacity="1.000000" stroke="none" 
	d="
M683.507507,341.883026 
	C684.549805,341.694183 685.988953,341.536346 687.656372,341.615479 
	C686.557861,341.872986 685.231140,341.893494 683.507507,341.883026 
z"/>
<path fill="#929394" opacity="1.000000" stroke="none" 
	d="
M748.351685,341.792786 
	C748.205688,341.535797 748.390869,341.322632 748.856079,341.091644 
	C748.902466,341.256348 748.751404,341.510620 748.351685,341.792786 
z"/>
<path fill="#929394" opacity="1.000000" stroke="none" 
	d="
M639.316650,341.823792 
	C639.120850,341.775635 639.415222,341.475586 639.415222,341.475586 
	C639.415222,341.475586 639.790649,341.581848 639.852783,341.714722 
	C639.914978,341.847565 639.512451,341.871979 639.316650,341.823792 
z"/>
<path fill="#F7F4F3" opacity="1.000000" stroke="none" 
	d="
M609.814819,591.815796 
	C627.912537,574.341125 646.005249,557.358826 663.453796,539.738525 
	C669.597229,533.534546 681.773193,533.730591 688.357361,539.467407 
	C695.901978,546.040955 697.660400,557.792419 691.593872,564.972473 
	C683.872864,574.110535 675.713257,582.880066 667.678223,591.750061 
	C648.390503,613.042114 629.116638,634.347046 609.733582,655.552063 
	C599.862366,666.351074 589.853271,677.027710 579.739075,687.599487 
	C574.385315,693.195496 564.758606,692.939636 559.232239,687.368408 
	C537.301819,665.260071 515.380188,643.143005 493.470795,621.013672 
	C491.834290,619.360718 490.210907,617.672668 488.772034,615.850525 
	C485.402557,611.583496 484.834595,605.279968 488.143921,601.060364 
	C491.397552,596.911804 495.016022,592.830444 499.195526,589.674622 
	C506.762817,583.960876 515.336914,584.878235 522.107727,591.653137 
	C531.402161,600.953247 540.423218,610.526489 549.705566,619.838928 
	C554.587891,624.737061 559.776978,629.329407 565.160095,634.371338 
	C580.009888,620.217834 594.783081,606.137390 609.814819,591.815796 
z"/>
</svg>