<svg version="1.1" id="Layer_1" xmlns="http://www.w3.org/2000/svg" xmlns:xlink="http://www.w3.org/1999/xlink" x="0px" y="0px"
	 width="100%" viewBox="0 0 613 705" enable-background="new 0 0 613 705" xmlSpace="preserve">
<path fill="#000" opacity="1.000000" stroke="none"
	d="
M1.000000,190.000000
	C1.000000,126.666664 1.000000,63.833332 1.000000,1.000000
	C205.333328,1.000000 409.666656,1.000000 614.000000,1.000000
	C614.000000,236.000000 614.000000,471.000000 614.000000,706.000000
	C409.666656,706.000000 205.333328,706.000000 1.000000,706.000000
	C1.000000,534.166687 1.000000,362.333344 1.000000,190.000000
M338.010529,625.590088
	C338.331451,625.761169 338.652405,625.932190 338.972137,626.026123
	C338.972137,626.026123 338.901306,626.056458 339.246002,626.579468
	C340.147919,627.087280 341.049835,627.595093 341.982574,628.028625
	C341.982574,628.028625 341.904724,628.048706 342.254639,628.580261
	C342.816742,628.879395 343.378845,629.178528 344.126465,629.813416
	C344.331635,629.992493 344.569702,630.068604 345.235168,630.526123
	C345.811584,630.732117 346.388031,630.938049 346.979279,631.049011
	C346.979279,631.049011 346.883087,631.047974 347.024170,631.579102
	C347.343353,631.743896 347.662506,631.908691 347.986969,632.005371
	C347.986969,632.005371 347.925323,632.035034 348.308380,632.514709
	C348.851593,632.794800 349.394806,633.074951 350.120148,633.733215
	C350.332428,633.942261 350.587433,634.041016 351.273254,634.528992
	C351.827972,634.832275 352.382690,635.135559 353.131348,635.790527
	C353.346588,635.976685 353.595856,636.056885 354.272095,636.505981
	C354.837585,636.720215 355.403076,636.934448 355.951996,637.058655
	C355.951996,637.058655 355.868439,637.096008 356.172791,637.653198
	C356.763824,637.821350 357.354858,637.989563 357.983795,638.073914
	C357.983795,638.073914 357.895416,638.048645 357.943542,638.633240
	C358.282867,638.817139 358.622162,639.001038 359.336334,639.737427
	C364.158173,642.574585 369.623108,644.709900 373.657471,648.406433
	C380.420227,654.602966 387.001190,652.178223 392.882507,648.549622
	C407.150696,639.746399 421.317230,630.672302 434.778442,620.700073
	C446.182495,612.251831 456.667694,602.535278 467.315460,593.104431
	C473.947510,587.230408 480.547272,581.218872 486.423096,574.612305
	C500.104828,559.228882 511.790894,542.398438 520.713562,523.770630
	C522.689270,519.645874 524.260803,515.327576 526.542542,510.925781
	C526.735596,510.628357 526.928589,510.330933 527.041626,510.030151
	C527.041626,510.030151 527.068054,510.105713 527.634521,509.660828
	C530.607422,500.123291 533.580261,490.585785 536.909485,480.385559
	C538.212097,471.223511 539.514709,462.061462 540.935120,451.982788
	C540.879333,423.032776 540.823547,394.082733 540.642395,364.454620
	C537.940002,358.772308 532.176697,359.236511 527.363647,358.043976
	C517.141418,355.511230 506.842499,353.288086 496.094513,350.292114
	C487.071869,347.486115 478.049194,344.680115 469.021210,341.952179
	C469.021210,341.952179 469.098663,341.941284 468.626404,341.409760
	C466.094177,340.561584 463.561951,339.713409 461.020508,338.944275
	C461.020508,338.944275 461.099854,338.938019 460.650116,338.426422
	C459.770142,338.243347 458.890198,338.060242 458.029327,337.964630
	C458.029327,337.964630 458.113068,337.932953 457.806519,337.376923
	C457.209991,337.264404 456.613495,337.151917 455.602631,336.960724
	C455.602631,336.960724 455.180878,336.960663 454.951508,336.466736
	C454.641418,336.330231 454.331299,336.193695 453.624115,335.950378
	C453.624115,335.950378 453.213074,335.939819 452.871490,335.381775
	C452.260162,335.200989 451.648834,335.020172 451.030823,334.923431
	C451.030823,334.923431 451.111847,334.900177 450.747284,334.294312
	C449.846893,334.149048 448.946472,334.003784 448.086090,333.945435
	C448.086090,333.945435 448.113556,333.853790 447.928528,333.183868
	C445.303619,332.064026 442.678711,330.944183 440.031006,329.910858
	C440.031006,329.910858 440.120453,329.910858 439.800690,329.377838
	C439.210510,329.202606 438.620361,329.027344 438.046997,328.941711
	C438.046997,328.941711 438.130249,328.904480 437.815857,328.358948
	C437.219238,328.259430 436.622589,328.159943 435.595398,327.982605
	C435.595398,327.982605 435.158081,327.967041 434.948090,327.448639
	C434.642731,327.257904 434.337372,327.067169 434.040161,326.955841
	C434.040161,326.955841 434.115540,326.929596 433.777588,326.408875
	C433.195129,326.222046 432.612701,326.035217 432.035919,325.939606
	C432.035919,325.939606 432.123627,325.913879 431.799774,325.379669
	C431.209229,325.202972 430.618713,325.026276 430.030090,324.940582
	C430.030090,324.940582 430.118713,324.919769 429.782806,324.397125
	C429.196777,324.216858 428.610748,324.036591 428.029205,323.946777
	C428.029205,323.946777 428.117126,323.924957 427.780548,323.402130
	C427.200104,323.214020 426.619659,323.025909 426.038269,322.925629
	C426.038269,322.925629 426.123138,322.902924 425.819122,322.354706
	C425.227661,322.183136 424.636200,322.011597 424.065491,321.923523
	C424.065491,321.923523 424.138000,321.877258 423.861572,321.306335
	C422.923767,320.837006 421.985931,320.367676 421.015808,319.972656
	C421.015808,319.972656 421.093567,319.949829 420.734406,319.455963
	C420.160828,319.269897 419.587280,319.083832 419.021454,318.972931
	C419.021454,318.972931 419.093903,318.951385 418.735413,318.454987
	C418.163818,318.259735 417.592255,318.064484 417.032349,317.955048
	C417.032349,317.955048 417.114502,317.927673 416.739716,317.367065
	C415.520081,316.851685 414.300446,316.336334 413.007751,315.890869
	C413.007751,315.890869 413.078949,315.962646 412.983582,315.314697
	C412.587219,315.131195 412.190857,314.947662 411.443298,314.219238
	C404.986389,310.175568 398.536743,306.120178 392.070648,302.091248
	C384.449768,297.342773 377.427460,296.767944 369.431061,302.477936
	C358.748993,310.105621 347.149628,316.448700 335.411835,323.481476
	C334.887054,323.936157 334.362274,324.390839 333.889648,324.924652
	C333.889648,324.924652 333.957214,324.858185 333.277863,324.773224
	C332.489014,325.166412 331.700195,325.559631 330.981445,325.977631
	C330.981445,325.977631 330.984344,325.903320 330.397614,326.008545
	C329.906647,326.327545 329.415710,326.646576 328.985992,326.995270
	C328.985992,326.995270 328.986359,326.927216 328.398468,327.010986
	C327.910492,327.330872 327.422516,327.650787 326.988129,328.003387
	C326.988129,328.003387 326.975098,327.941925 326.299255,328.075378
	C325.340973,328.695526 324.382660,329.315674 323.234833,329.783417
	C323.234833,329.783417 323.038849,329.927368 322.425049,329.996002
	C321.919525,330.314941 321.414032,330.633881 320.980103,330.976868
	C320.980103,330.976868 320.973236,330.901642 320.395325,331.036011
	C320.226685,331.336761 320.058075,331.637512 319.973022,331.939545
	C319.973022,331.939545 319.957153,331.857452 319.246185,331.678955
	C318.387024,332.092072 317.527832,332.505188 316.305725,332.899628
	C316.305725,332.899628 315.984741,333.069946 315.330139,333.138733
	C314.187408,333.740448 313.044678,334.342194 311.976288,334.964447
	C311.976288,334.964447 311.984558,334.887726 311.341614,334.962494
	C310.805695,335.284760 310.269775,335.607025 309.343567,335.921692
	C309.343567,335.921692 308.984344,336.074280 308.320953,336.090912
	C307.178772,336.705627 306.036591,337.320343 304.973572,337.947571
	C304.973572,337.947571 304.969574,337.867554 304.204529,337.949707
	C300.098755,339.602661 295.992981,341.255615 291.969269,342.933044
	C291.969269,342.933044 291.973053,342.847473 291.277435,342.869110
	C290.481689,343.214783 289.685913,343.560486 288.970795,343.924622
	C288.970795,343.924622 288.966400,343.842041 288.166016,343.870850
	C283.424896,345.575256 278.683777,347.279663 273.302399,349.292725
	C271.553284,349.830353 269.804169,350.367981 267.786041,350.395935
	C267.122009,350.493683 266.457947,350.591400 265.174561,350.823090
	C264.771332,350.947418 264.368134,351.071747 263.206268,351.237213
	C253.719742,353.522064 244.203812,355.693909 234.762360,358.151886
	C231.372604,359.034424 228.162323,360.606323 224.888626,361.947113
	C224.888626,361.947113 224.934799,361.875092 224.345901,361.919525
	C224.181610,362.263794 224.017334,362.608093 223.936218,362.965912
	C223.936218,362.965912 223.914551,362.884491 223.429733,363.071594
	C223.341919,363.388763 223.254105,363.705933 222.935608,364.482971
	C222.872879,364.642548 222.810135,364.802155 222.247665,365.305023
	C222.206909,365.893616 222.166168,366.482208 222.037689,367.994598
	C222.030502,393.147186 222.006271,418.299835 222.058121,443.452301
	C222.061264,444.976715 222.669159,446.499847 223.031616,448.941437
	C223.416290,454.639008 223.800980,460.336609 224.107864,466.852081
	C227.376511,478.683014 230.645142,490.513916 233.975906,503.052856
	C234.639481,504.374481 235.435120,505.647064 235.947189,507.024994
	C247.039703,536.872681 265.737885,561.591370 288.069885,584.541443
	C288.365265,584.768738 288.660675,584.996094 289.235840,585.804932
	C291.426727,587.887756 293.617584,589.970581 296.084656,592.487976
	C296.367676,592.671509 296.650726,592.854980 297.294891,593.603149
	C310.543121,604.029358 323.791351,614.455566 337.438751,625.118591
	C337.438751,625.118591 337.895996,625.198120 337.969788,625.114136
	C337.969788,625.114136 337.877899,625.050415 338.010529,625.590088
M192.426865,475.985077
	C195.254837,473.586456 192.515594,473.592255 190.964554,472.241516
	C190.900040,471.195190 190.835510,470.148834 191.351349,468.698944
	C190.941742,467.468506 190.532135,466.238037 189.870605,464.236023
	C189.914536,463.157288 189.958466,462.078583 190.685898,460.875366
	C190.173981,457.919922 189.662064,454.964508 188.992096,451.082336
	C188.955780,432.152191 188.874756,413.222015 188.896805,394.291962
	C188.915558,378.191772 189.053116,362.091766 189.712128,345.914856
	C189.769913,345.261719 189.827713,344.608551 189.940659,343.315125
	C190.003235,342.891785 190.065796,342.468445 190.740829,341.757385
	C192.847366,339.227264 194.953888,336.697174 197.710587,333.966034
	C198.642883,333.357483 199.575180,332.748932 200.817627,332.188385
	C200.817627,332.188385 201.002182,331.934509 201.586578,331.952332
	C202.093765,331.715179 202.600937,331.478027 203.923599,331.157593
	C205.678604,330.775421 207.449127,330.452911 209.186264,330.001953
	C230.513733,324.465393 252.051437,319.615570 273.110138,313.195374
	C305.272095,303.390137 333.679718,285.980469 361.245209,267.145721
	C374.753082,257.916168 386.054321,258.176575 399.620605,267.463104
	C427.053131,286.241486 455.858521,302.349731 488.239685,312.729065
	C493.158264,314.096222 498.076813,315.463379 503.608948,317.040131
	C504.032745,317.122681 504.456543,317.205231 505.336670,317.811310
	C506.889557,318.150818 508.442474,318.490356 510.620453,319.029938
	C511.052765,319.087158 511.485077,319.144348 512.175293,319.635284
	C512.825623,319.707092 513.475952,319.778900 514.537415,319.574829
	C514.537415,319.574829 514.305542,319.137360 514.323303,319.210388
	C514.323303,319.210388 514.349670,319.148315 514.728027,319.927094
	C515.016174,319.942474 515.304382,319.957886 516.102844,320.379883
	C518.066956,320.857086 520.031128,321.334320 522.647400,321.999146
	C523.097229,322.002289 523.546997,322.005402 524.575012,322.490021
	C528.381836,323.274445 532.188721,324.058868 536.614990,325.018280
	C537.029541,325.128815 537.444092,325.239349 538.424561,325.888733
	C541.119812,326.311035 543.815063,326.733337 546.790955,327.199615
	C546.924927,324.541290 547.039612,322.266144 547.908936,319.786835
	C549.205200,316.085541 550.530884,312.382202 546.993225,308.082489
	C547.046326,293.385345 547.099365,278.688232 547.918579,263.780731
	C548.276245,262.755585 548.942749,261.731445 548.945923,260.705170
	C549.007751,240.972137 549.022827,221.238693 548.913513,201.506042
	C548.907104,200.337280 547.772400,199.174774 546.940918,197.446533
	C546.325439,196.940567 545.709961,196.434586 544.962952,195.238708
	C542.468262,192.659256 540.011169,190.042206 537.473145,187.506180
	C512.010803,162.064514 486.630554,136.539719 461.031769,111.236008
	C442.146332,92.568222 422.970886,74.193840 403.909454,55.759472
	C403.909454,55.759472 403.854889,55.720287 403.528992,55.160603
	C403.333893,54.782429 403.138794,54.404255 403.109741,53.546307
	C403.066071,53.382805 403.022430,53.219299 402.805267,52.257919
	C400.985199,51.838219 399.165344,51.052647 397.345001,51.051373
	C311.962219,50.991497 226.579391,50.993958 141.196579,51.041374
	C139.466675,51.042336 137.737106,51.657890 135.539551,52.289177
	C135.362961,52.801720 135.186386,53.314262 134.192383,53.992672
	C132.802521,54.014114 131.412674,54.035561 129.708710,53.595333
	C129.142227,54.011284 128.575745,54.427235 127.280975,55.079094
	C120.334778,58.775806 112.288925,61.267105 106.657196,66.404709
	C92.186630,79.605621 78.786812,93.980278 64.386307,108.102280
	C63.882507,108.740784 63.378712,109.379288 62.468597,110.364243
	C62.352749,110.697960 62.236897,111.031677 62.188301,111.731583
	C62.188301,111.731583 61.934635,112.004112 61.248829,112.127235
	C60.857189,114.093987 60.465549,116.060738 60.040150,118.960808
	C60.037197,273.726624 60.030537,428.492432 60.067890,583.258240
	C60.068428,585.500549 60.618416,587.742676 60.885334,590.640930
	C61.278645,592.085693 61.671955,593.530396 62.006306,595.640869
	C62.372005,596.428284 62.737705,597.215698 63.012405,598.545471
	C63.351479,599.130737 63.690552,599.716003 64.019264,601.042236
	C64.655449,602.036316 65.291634,603.030396 66.041733,604.694641
	C67.020393,606.151672 67.999062,607.608643 69.159622,609.702942
	C70.786125,611.464600 72.412628,613.226196 74.347008,615.581360
	C78.896774,618.674316 83.446533,621.767212 88.562561,625.208496
	C89.367363,625.491089 90.172165,625.773682 91.180473,626.813538
	C92.340858,627.413574 93.447830,628.360901 94.671570,628.549072
	C98.473129,629.133789 102.319008,629.430420 107.272766,630.196106
	C107.663071,630.146118 108.053375,630.096130 108.683479,630.023071
	C109.023933,630.300049 109.364388,630.577087 109.503311,631.131775
	C109.334724,631.421997 109.166138,631.712219 108.818649,632.581909
	C109.268181,632.723816 109.717682,632.989868 110.167252,632.989990
	C168.126099,633.005249 226.084961,633.013611 284.043671,632.917908
	C285.364990,632.915771 286.684357,631.723816 288.603790,630.846436
	C287.746796,629.872253 286.889801,628.898132 285.768463,627.308472
	C280.643127,622.827271 275.353455,618.518921 270.422974,613.832703
	C255.105148,599.273621 240.642807,583.830872 229.198700,566.052490
	C220.954025,553.244385 214.331528,539.392090 207.471756,525.630737
	C206.682861,524.422729 205.893951,523.214783 204.746872,521.448975
	C204.494720,520.633850 204.242569,519.818787 204.441895,518.678528
	C204.000549,518.121521 203.559204,517.564514 202.760971,516.411133
	C202.230820,514.932678 201.700668,513.454285 201.644318,511.467072
	C199.820786,506.648041 197.997238,501.829010 195.966751,496.389038
	C195.911835,495.957367 195.856934,495.525665 196.291595,494.788666
	C195.912949,494.210846 195.534286,493.633026 194.959381,492.406097
	C194.928391,491.958527 194.897400,491.510925 195.405548,490.688934
	C195.341904,488.232025 197.368011,485.072479 192.942490,483.367340
	C192.949524,482.916473 192.956573,482.465607 193.542435,481.736725
	C195.952499,479.414581 194.523773,478.532806 191.926590,477.381927
	C191.881104,476.951080 191.835617,476.520203 192.426865,475.985077
M547.514038,328.411743
	C547.514038,328.411743 547.577942,328.519928 547.514038,328.411743
M203.566742,512.514526
	C203.566742,512.514526 203.476273,512.563721 203.566742,512.514526
z"/>
<path fill="#F6F4F4" opacity="1.000000" stroke="none"
	d="
M130.022812,54.057007
	C131.412674,54.035561 132.802521,54.014114 134.924438,53.975861
	C136.449493,53.664059 137.242493,53.369072 138.496552,53.152500
	C160.953613,53.248596 182.949600,53.270485 204.945602,53.283180
	C269.938232,53.320686 334.930878,53.354561 400.166077,53.596024
	C401.253693,53.876823 402.098694,53.951458 402.943695,54.026085
	C403.138794,54.404255 403.333893,54.782429 403.339905,55.810333
	C403.036835,58.281151 402.824402,60.102184 402.823425,61.923332
	C402.805878,94.915512 402.807800,127.907707 402.831116,160.899872
	C402.832520,162.890839 403.047516,164.881638 403.115540,167.278458
	C403.225037,168.816605 403.217712,170.002045 403.564514,171.072815
	C407.174835,182.220917 414.334503,190.225067 425.070496,195.412582
	C427.093048,196.156845 429.055908,196.561447 431.406799,196.943909
	C432.569550,196.873795 433.344299,196.825821 434.315613,196.826797
	C434.512177,196.875732 434.916473,196.849655 435.301788,196.916931
	C436.466125,197.048981 437.245178,197.113770 438.128113,197.556610
	C439.260376,198.289017 440.288208,198.951157 441.317200,198.952988
	C472.368134,199.008148 503.419281,199.018036 534.470032,198.921738
	C535.640747,198.918106 536.807922,197.786209 538.402222,197.128998
	C540.251709,196.992615 541.675659,196.907272 543.347595,196.868958
	C543.759766,196.953232 543.923950,196.990463 544.364319,197.335419
	C544.760559,198.623138 544.985352,199.603104 544.985779,200.583176
	C545.002563,240.664856 545.003052,280.746521 544.979919,320.828217
	C544.979187,322.087280 544.706909,323.346252 544.589600,324.359741
	C542.051575,324.733093 539.955139,325.041473 537.858643,325.349854
	C537.444092,325.239349 537.029541,325.128815 536.221252,324.575684
	C531.883972,323.424927 527.940369,322.716736 523.996826,322.008545
	C523.546997,322.005402 523.097229,322.002289 522.238831,321.545288
	C519.751038,320.718719 517.671814,320.346008 515.592590,319.973328
	C515.304382,319.957886 515.016174,319.942474 514.802856,319.562927
	C514.986206,319.130188 515.094788,319.061646 515.203430,318.993103
	C514.904114,319.041199 514.604858,319.089264 514.305542,319.137329
	C514.305542,319.137360 514.537415,319.574829 514.248413,319.379639
	C513.278687,319.190155 512.598022,319.195862 511.917389,319.201569
	C511.485077,319.144348 511.052765,319.087158 510.241150,318.599701
	C508.201355,317.875580 506.540833,317.581696 504.880341,317.287781
	C504.456543,317.205231 504.032745,317.122681 503.227173,316.591431
	C497.860626,314.775970 492.875824,313.409210 487.891052,312.042450
	C455.858521,302.349731 427.053131,286.241486 399.620605,267.463104
	C386.054321,258.176575 374.753082,257.916168 361.245209,267.145721
	C333.679718,285.980469 305.272095,303.390137 273.110138,313.195374
	C252.051437,319.615570 230.513733,324.465393 209.186264,330.001953
	C207.449127,330.452911 205.678604,330.775421 203.361084,330.945007
	C202.199768,331.133118 201.600967,331.533813 201.002182,331.934509
	C201.002182,331.934509 200.817627,332.188385 200.259689,332.135254
	C198.821304,332.777100 197.940857,333.472076 197.060394,334.167053
	C194.953888,336.697174 192.847366,339.227264 190.048538,341.949371
	C188.571060,343.994781 187.108719,345.845428 187.101166,347.701996
	C186.963486,381.470581 186.979523,415.239960 187.079453,449.008789
	C187.083405,450.339722 188.242554,451.667267 188.988190,453.417999
	C189.101654,455.884918 189.090393,457.930206 188.777588,460.246948
	C187.511337,465.329010 187.900711,469.896729 191.039490,474.301941
	C191.173798,475.048889 191.162689,475.491211 190.870850,476.140137
	C191.018616,477.563324 191.447113,478.779907 191.977051,480.299500
	C192.158813,481.019623 192.239120,481.436768 191.973145,481.922516
	C190.661011,484.183563 191.722870,487.879120 194.085342,490.180206
	C194.344467,490.690277 194.552246,490.924072 194.866394,491.063354
	C194.897400,491.510925 194.928391,491.958527 194.954742,492.768005
	C194.950104,493.129913 194.832275,492.945679 194.521118,493.019226
	C193.973907,493.864838 193.737869,494.636841 193.501816,495.408875
	C194.021744,495.228668 194.541687,495.048492 195.244171,494.933105
	C195.426727,494.997925 195.802017,495.093994 195.802032,495.093994
	C195.856934,495.525665 195.911835,495.957367 196.066101,497.076782
	C197.833817,502.501617 199.502151,507.238708 201.170502,511.975830
	C201.700668,513.454285 202.230820,514.932678 202.908020,517.002563
	C203.366867,518.063904 203.678650,518.533813 203.990433,519.003662
	C204.242569,519.818787 204.494720,520.633850 204.911438,522.056213
	C205.712479,523.777466 206.348969,524.891541 206.985474,526.005554
	C214.331528,539.392090 220.954025,553.244385 229.198700,566.052490
	C240.642807,583.830872 255.105148,599.273621 270.422974,613.832703
	C275.353455,618.518921 280.643127,622.827271 285.733521,627.873291
	C285.129547,628.622986 284.560486,628.807800 283.695496,628.699097
	C281.921906,628.270325 280.444366,628.017517 278.966736,628.016968
	C223.486786,627.996887 168.006851,627.998474 112.526901,628.009338
	C111.203972,628.009583 109.873108,628.098328 108.570496,628.302429
	C108.440353,628.322876 108.481857,629.438721 108.443687,630.046143
	C108.053375,630.096130 107.663071,630.146118 106.575485,629.622925
	C100.911125,628.051941 95.944046,627.054138 90.976967,626.056335
	C90.172165,625.773682 89.367363,625.491089 88.267479,624.665405
	C83.327980,621.077515 78.683556,618.032654 74.039131,614.987793
	C72.412628,613.226196 70.786125,611.464600 69.066681,609.010315
	C67.958435,606.886597 66.943146,605.455505 65.927826,604.024475
	C65.291634,603.030396 64.655449,602.036316 64.327888,600.588074
	C64.125473,599.423645 63.614429,598.713379 63.103397,598.003113
	C62.737705,597.215698 62.372005,596.428284 62.294552,595.179443
	C62.388329,593.145325 62.193859,591.572632 61.999435,589.531372
	C61.999161,515.430725 61.998531,441.798828 61.998596,368.166901
	C61.998672,286.538757 62.003689,204.910583 61.981682,123.282440
	C61.980923,120.465294 61.712566,117.648224 61.640236,114.517578
	C61.856274,113.801125 62.001022,113.398201 62.487755,112.926590
	C63.539505,111.200546 64.249275,109.543175 64.959038,107.885811
	C78.786812,93.980278 92.186630,79.605621 106.657196,66.404709
	C112.288925,61.267105 120.334778,58.775806 127.937576,55.013016
	C129.070389,54.650299 129.546600,54.353653 130.022812,54.057007
M148.414459,230.819412
	C147.989182,230.939514 147.563904,231.059616 146.453156,231.125626
	C145.351822,231.426819 144.250488,231.728012 142.708572,232.155640
	C142.415756,232.285110 142.204956,232.496399 141.434799,233.091019
	C131.948700,244.246170 134.702560,255.498138 148.281570,261.019501
	C149.494537,261.346130 150.707230,261.957275 151.920517,261.958405
	C202.579300,262.006226 253.238174,262.013092 303.896851,261.926086
	C305.258606,261.923737 306.618500,260.831726 308.682343,260.062653
	C309.401062,259.969391 310.119751,259.876129 311.516876,259.648895
	C319.730255,255.516205 321.900848,251.821533 321.142273,243.265121
	C320.622437,237.401169 316.538757,233.006668 309.244812,230.991379
	C308.823547,230.860916 308.402313,230.730438 307.704193,229.883881
	C306.472290,229.589584 305.240570,229.039017 304.008423,229.037949
	C253.763077,228.994720 203.517700,228.988373 153.272430,229.065262
	C151.852280,229.067444 150.433578,230.023743 148.414459,230.819412
M148.237549,194.952469
	C149.437286,195.301086 150.636719,195.953445 151.836807,195.954636
	C203.226028,196.005630 254.615311,196.012695 306.004395,195.920609
	C307.328400,195.918243 308.650269,194.752335 310.639923,193.900696
	C313.174438,192.064407 316.099823,190.586060 318.170441,188.324951
	C324.466125,181.450027 320.756592,166.723450 311.138672,165.433945
	C310.754150,165.214630 310.369659,164.995316 309.753174,164.024490
	C308.380371,163.683441 307.007843,163.045547 305.634705,163.044174
	C254.501251,162.993271 203.367737,162.988480 152.234360,163.067688
	C150.827499,163.069870 149.422180,164.060547 147.550751,164.854446
	C147.389114,164.929871 147.227463,165.005310 146.335876,165.049469
	C139.100601,167.912292 135.435577,173.376373 135.968277,180.506210
	C136.450638,186.962296 140.201019,191.445526 146.878342,193.546799
	C147.256897,193.762833 147.635452,193.978867 148.237549,194.952469
M198.500000,55.007137
	C178.711563,55.007137 158.923126,55.007137 139.134689,55.007137
	C139.135742,55.241550 139.136810,55.475960 139.137863,55.710373
	C226.036316,55.710373 312.934784,55.710373 399.833252,55.710373
	C399.833496,55.475937 399.833771,55.241505 399.834045,55.007069
	C333.056030,55.007069 266.278015,55.007069 198.500000,55.007137
z"/>
<path fill="#C62121" opacity="1.000000" stroke="none"
	d="
M353.879211,636.031189
	C353.595856,636.056885 353.346588,635.976685 352.923218,635.286011
	C352.105103,634.530823 351.495148,634.280090 350.885162,634.029419
	C350.587433,634.041016 350.332428,633.942261 349.915222,633.231079
	C349.115295,632.497620 348.520294,632.266296 347.925323,632.035034
	C347.925323,632.035034 347.986969,632.005371 347.877838,631.797119
	C347.473511,631.408569 347.178314,631.228271 346.883087,631.047974
	C346.883087,631.047974 346.979279,631.049011 346.820374,630.808716
	C346.054565,630.392944 345.447601,630.217346 344.840668,630.041809
	C344.569702,630.068604 344.331635,629.992493 343.926880,629.313110
	C343.119751,628.558167 342.512238,628.303467 341.904724,628.048706
	C341.904724,628.048706 341.982574,628.028625 341.935486,627.704346
	C340.892670,626.938843 339.896973,626.497681 338.901306,626.056458
	C338.901306,626.056458 338.972137,626.026123 338.871552,625.815552
	C338.473267,625.420166 338.175568,625.235291 337.877899,625.050415
	C337.877899,625.050415 337.969788,625.114136 337.909271,624.962036
	C337.579041,624.833923 337.309326,624.857849 337.039612,624.881775
	C323.791351,614.455566 310.543121,604.029358 297.282745,593.157837
	C296.783203,592.492859 296.295837,592.273132 295.808472,592.053467
	C293.617584,589.970581 291.426727,587.887756 288.993042,585.242188
	C288.437286,584.466248 288.124359,584.253113 287.811401,584.039917
	C265.737885,561.591370 247.039703,536.872681 235.947189,507.024994
	C235.435120,505.647064 234.639481,504.374481 233.974182,502.268555
	C233.973648,500.989044 234.076645,500.468658 233.961166,500.002380
	C231.240738,489.017242 228.511292,478.034241 225.704788,467.070984
	C225.590622,466.624969 224.709473,466.375336 224.185669,466.034180
	C223.800980,460.336609 223.416290,454.639008 223.010193,448.012146
	C222.991287,422.152863 223.011215,397.222809 222.958847,372.292908
	C222.955185,370.551636 222.415726,368.811462 222.125427,367.070801
	C222.166168,366.482208 222.206909,365.893616 222.750732,365.053894
	C223.484955,364.548492 223.716141,364.294250 223.953888,363.750671
	C223.945145,363.269104 223.929840,363.076782 223.914551,362.884491
	C223.914551,362.884491 223.936218,362.965912 224.149994,362.865234
	C224.554108,362.468079 224.744461,362.171600 224.934799,361.875092
	C224.934799,361.875092 224.888626,361.947113 225.284943,361.947998
	C237.628433,358.988037 249.582230,356.053192 261.509674,353.014984
	C262.423248,352.782257 263.150848,351.819458 263.964905,351.196045
	C264.368134,351.071747 264.771332,350.947418 265.633667,351.028717
	C266.746826,351.124756 267.400940,351.015167 268.055023,350.905579
	C269.804169,350.367981 271.553284,349.830353 274.034363,349.145325
	C279.499695,347.279266 284.233063,345.560669 288.966400,343.842041
	C288.966400,343.842041 288.970795,343.924622 289.288208,343.946655
	C290.394775,343.594971 291.183929,343.221222 291.973053,342.847473
	C291.973053,342.847473 291.969269,342.933044 292.337524,342.953125
	C296.793701,341.271332 300.881653,339.569427 304.969574,337.867554
	C304.969574,337.867554 304.973572,337.947571 305.314392,337.962128
	C306.764893,337.342529 307.874603,336.708405 308.984344,336.074280
	C308.984344,336.074280 309.343567,335.921692 309.877258,335.927795
	C310.935486,335.585175 311.460022,335.236450 311.984558,334.887726
	C311.984558,334.887726 311.976288,334.964447 312.318909,334.969849
	C313.769257,334.340149 314.877014,333.705048 315.984741,333.069946
	C315.984741,333.069946 316.305725,332.899628 316.865692,332.931000
	C318.269501,332.594086 319.113312,332.225769 319.957153,331.857452
	C319.957153,331.857452 319.973022,331.939545 320.179474,331.846985
	C320.581696,331.470154 320.777466,331.185913 320.973236,330.901642
	C320.973236,330.901642 320.980103,330.976868 321.262939,330.953430
	C322.043457,330.595795 322.541138,330.261566 323.038849,329.927368
	C323.038849,329.927368 323.234833,329.783417 323.735870,329.868927
	C325.149658,329.283600 326.062378,328.612762 326.975098,327.941925
	C326.975098,327.941925 326.988129,328.003387 327.272491,327.965881
	C328.033356,327.594635 328.509857,327.260925 328.986359,326.927216
	C328.986359,326.927216 328.985992,326.995270 329.268616,326.958801
	C330.028961,326.582642 330.506653,326.242981 330.984344,325.903320
	C330.984344,325.903320 330.981445,325.977631 331.301117,325.974731
	C332.399597,325.600616 333.178406,325.229401 333.957214,324.858185
	C333.957214,324.858185 333.889648,324.924652 334.172455,324.915192
	C334.951569,324.384979 335.447876,323.864227 335.944214,323.343475
	C347.149628,316.448700 358.748993,310.105621 369.431061,302.477936
	C377.427460,296.767944 384.449768,297.342773 392.070648,302.091248
	C398.536743,306.120178 404.986389,310.175568 411.780273,314.750214
	C412.437836,315.508331 412.758392,315.735504 413.078949,315.962646
	C413.078949,315.962646 413.007751,315.890869 413.153839,316.201447
	C414.571442,316.983917 415.842987,317.455780 417.114502,317.927673
	C417.114502,317.927673 417.032349,317.955048 417.174835,318.193726
	C417.909515,318.605408 418.501709,318.778412 419.093903,318.951385
	C419.093903,318.951385 419.021454,318.972931 419.173279,319.209625
	C419.914612,319.614166 420.504089,319.782013 421.093567,319.949829
	C421.093567,319.949829 421.015808,319.972656 421.062561,320.298889
	C422.118896,321.042480 423.128448,321.459869 424.138000,321.877258
	C424.138000,321.877258 424.065491,321.923523 424.197113,322.170654
	C424.926880,322.579498 425.524994,322.741211 426.123138,322.902924
	C426.123138,322.902924 426.038269,322.925629 426.180603,323.170898
	C426.921021,323.585724 427.519073,323.755341 428.117126,323.924957
	C428.117126,323.924957 428.029205,323.946777 428.175354,324.187073
	C428.920593,324.591522 429.519653,324.755646 430.118713,324.919769
	C430.118713,324.919769 430.030090,324.940582 430.175659,325.182800
	C430.922028,325.587952 431.522827,325.750916 432.123627,325.913879
	C432.123627,325.913879 432.035919,325.939606 432.178192,326.181335
	C432.918823,326.591919 433.517181,326.760742 434.115540,326.929596
	C434.115540,326.929596 434.040161,326.955841 434.139709,327.173218
	C434.545563,327.582764 434.851807,327.774902 435.158081,327.967041
	C435.158081,327.967041 435.595398,327.982605 435.986206,328.270844
	C436.961395,328.674225 437.545837,328.789337 438.130249,328.904480
	C438.130249,328.904480 438.046997,328.941711 438.184937,329.183472
	C438.922058,329.587128 439.521240,329.748993 440.120453,329.910858
	C440.120453,329.910858 440.031006,329.910858 440.153809,330.208862
	C442.888916,331.622498 445.501251,332.738129 448.113556,333.853790
	C448.113556,333.853790 448.086090,333.945435 448.248474,334.201965
	C449.311218,334.605682 450.211517,334.752930 451.111847,334.900177
	C451.111847,334.900177 451.030823,334.923431 451.189453,335.177155
	C451.969757,335.600525 452.591431,335.770172 453.213074,335.939819
	C453.213074,335.939819 453.624115,335.950378 453.945496,336.230408
	C454.571564,336.660522 454.876221,336.810608 455.180878,336.960663
	C455.180878,336.960663 455.602631,336.960724 455.982178,337.252472
	C456.945526,337.673798 457.529297,337.803375 458.113068,337.932922
	C458.113068,337.932953 458.029327,337.964630 458.207489,338.219055
	C459.290375,338.628326 460.195129,338.783173 461.099854,338.938019
	C461.099854,338.938019 461.020508,338.944275 461.158386,339.250732
	C463.897064,340.351868 466.497864,341.146576 469.098663,341.941284
	C469.098663,341.941284 469.021210,341.952179 469.159088,342.253845
	C478.389648,345.349701 487.482330,348.143860 496.575012,350.938019
	C506.842499,353.288086 517.141418,355.511230 527.363647,358.043976
	C532.176697,359.236511 537.940002,358.772308 540.449219,365.104523
	C540.184204,394.211975 540.107605,422.669495 540.073059,451.127075
	C540.072327,451.717560 540.558350,452.308624 540.817322,452.899414
	C539.514709,462.061462 538.212097,471.223511 536.362061,480.854065
	C534.815857,484.274323 533.726746,487.199127 532.836731,490.183289
	C530.860901,496.808289 528.984802,503.463074 527.068054,510.105713
	C527.068054,510.105713 527.041626,510.030151 526.829346,510.128265
	C526.417480,510.517029 526.218018,510.807709 526.018494,511.098389
	C524.260803,515.327576 522.689270,519.645874 520.713562,523.770630
	C511.790894,542.398438 500.104828,559.228882 486.423096,574.612305
	C480.547272,581.218872 473.947510,587.230408 467.315460,593.104431
	C456.667694,602.535278 446.182495,612.251831 434.778442,620.700073
	C421.317230,630.672302 407.150696,639.746399 392.882507,648.549622
	C387.001190,652.178223 380.420227,654.602966 373.657471,648.406433
	C369.623108,644.709900 364.158173,642.574585 359.055359,639.202454
	C358.481415,638.461182 358.188416,638.254883 357.895447,638.048645
	C357.895416,638.048645 357.983795,638.073914 357.822144,637.828003
	C357.063141,637.419983 356.465790,637.257996 355.868439,637.096008
	C355.868439,637.096008 355.951996,637.058655 355.812622,636.817444
	C355.075256,636.394531 354.477234,636.212830 353.879211,636.031189
M332.935303,462.064392
	C332.935303,462.064392 332.916077,462.233978 332.719177,461.684875
	C332.400238,461.479279 332.081299,461.273712 331.163818,460.803070
	C326.362854,455.954102 321.636230,451.028503 316.739563,446.278198
	C312.047302,441.726166 301.921417,438.725952 298.467926,441.334106
	C293.783905,444.871521 289.221100,448.758301 285.363892,453.159180
	C278.901031,460.532928 279.260406,466.550507 286.204895,473.610687
	C308.978607,496.763947 331.842041,519.829224 354.727478,542.872192
	C359.682526,547.861389 370.585571,547.903137 375.503571,542.893127
	C381.444550,536.841064 387.231720,530.629639 392.898132,524.318909
	C398.546906,518.027832 403.844025,511.420013 409.519531,505.154175
	C414.275146,499.903900 419.492615,495.072205 424.254242,489.826996
	C430.128021,483.356628 435.596222,476.516602 441.505005,470.079865
	C448.622589,462.326294 456.027313,454.836639 463.279877,447.206207
	C463.937195,446.514679 464.308624,445.554779 464.952789,444.846893
	C470.384644,438.877838 475.854004,432.942902 481.302612,426.989075
	C487.619873,420.086029 492.755676,413.059692 488.932648,402.674042
	C486.940979,397.263428 483.041443,393.554718 477.551941,390.433044
	C476.884003,390.323730 476.216095,390.214417 474.901154,390.121857
	C474.261932,390.036835 473.622711,389.951813 472.835327,389.156403
	C470.689789,387.677094 468.606323,386.713165 466.311035,390.054138
	C463.932800,391.463257 461.191315,392.489380 459.235657,394.344116
	C447.079315,405.872650 435.125488,417.614441 423.050415,429.229248
	C416.130096,435.885773 409.107727,442.436310 401.645752,449.264954
	C401.441925,449.552979 401.238068,449.841003 400.789886,450.745361
	C387.242615,463.517426 373.695312,476.289459 360.078674,489.126892
	C351.291504,480.479431 342.597229,471.923401 333.719757,462.783386
	C333.401428,462.546143 333.083099,462.308929 332.935303,462.064392
z"/>
<path fill="#AEAEAE" opacity="1.000000" stroke="none"
	d="
M425.010834,195.072922
	C414.334503,190.225067 407.174835,182.220917 403.564514,171.072815
	C403.217712,170.002045 403.225037,168.816605 403.384644,166.979706
	C403.798889,165.623962 403.981903,164.972900 403.981750,164.321854
	C403.972412,128.110809 403.947754,91.899773 403.924652,55.688736
	C422.970886,74.193840 442.146332,92.568222 461.031769,111.236008
	C486.630554,136.539719 512.010803,162.064514 537.473145,187.506180
	C540.011169,190.042206 542.468262,192.659256 544.785522,195.658722
	C544.440002,196.054855 544.272034,196.030991 543.895203,196.089752
	C543.401184,196.307999 543.205627,196.524506 543.099670,196.821930
	C541.675659,196.907272 540.251709,196.992615 538.056030,197.077393
	C536.823425,197.006561 536.362610,196.936264 535.656250,196.616821
	C533.639587,196.534195 531.868286,196.700729 529.631042,196.936859
	C525.077515,196.960815 520.989990,196.915176 516.613220,196.602997
	C512.914490,196.515152 509.505005,196.693832 505.625244,196.941498
	C497.738922,196.964096 490.322815,196.917740 482.679718,196.626343
	C480.999512,196.544525 479.546356,196.707748 477.627472,196.940506
	C473.076782,196.965576 468.991760,196.921112 464.606812,196.603546
	C457.569855,196.511215 450.832916,196.691956 443.665955,196.941025
	C441.498688,197.065750 439.761444,197.122147 438.024200,197.178558
	C437.245178,197.113770 436.466125,197.048981 435.241364,196.779510
	C434.795624,196.574814 434.413177,196.465302 434.413177,196.465302
	C434.413177,196.465302 434.119049,196.777863 434.119049,196.777863
	C433.344299,196.825821 432.569550,196.873795 431.138855,196.718323
	C428.658875,196.034241 426.834839,195.553589 425.010834,195.072922
z"/>
<path fill="#FCFBFB" opacity="1.000000" stroke="none"
	d="
M61.568939,114.831116
	C61.712566,117.648224 61.980923,120.465294 61.981682,123.282440
	C62.003689,204.910583 61.998672,286.538757 61.998596,368.166901
	C61.998531,441.798828 61.999161,515.430725 61.818184,589.530579
	C61.395229,589.995117 61.153587,589.990601 60.911972,589.984924
	C60.618416,587.742676 60.068428,585.500549 60.067890,583.258240
	C60.030537,428.492432 60.037197,273.726624 60.340225,118.349915
	C60.949852,116.769722 61.259396,115.800423 61.568939,114.831116
z"/>
<path fill="#171616" opacity="1.000000" stroke="none"
	d="
M399.923492,53.389854
	C334.930878,53.354561 269.938232,53.320686 204.945602,53.283180
	C182.949600,53.270485 160.953613,53.248596 138.334625,52.892540
	C137.143539,52.365017 136.575455,52.175865 136.007370,51.986717
	C137.737106,51.657890 139.466675,51.042336 141.196579,51.041374
	C226.579391,50.993958 311.962219,50.991497 397.345001,51.051373
	C399.165344,51.052647 400.985199,51.838219 402.504395,52.637657
	C401.443512,53.141548 400.683502,53.265705 399.923492,53.389854
z"/>
<path fill="#ECEAEA" opacity="1.000000" stroke="none"
	d="
M108.563583,630.034668
	C108.481857,629.438721 108.440353,628.322876 108.570496,628.302429
	C109.873108,628.098328 111.203972,628.009583 112.526901,628.009338
	C168.006851,627.998474 223.486786,627.996887 278.966736,628.016968
	C280.444366,628.017517 281.921906,628.270325 283.266724,628.699829
	C280.431976,629.402222 277.729950,629.810364 274.784485,630.383545
	C274.375641,630.653992 274.210297,630.759338 273.627136,630.761963
	C271.797363,630.527832 270.385406,630.396362 268.841431,629.990601
	C267.147675,629.899902 265.585907,630.083496 263.603821,630.420898
	C261.113495,630.472107 259.043396,630.369507 256.854797,630.009155
	C255.498917,629.924011 254.261520,630.096558 252.578247,630.423340
	C244.746002,630.474609 237.359634,630.371643 229.841644,629.993958
	C228.148010,629.902771 226.585983,630.086426 224.602966,630.423218
	C222.109283,630.473145 220.036591,630.369812 217.835968,629.992310
	C216.148148,629.881653 214.588272,630.045227 212.707779,630.353699
	C211.937866,630.615234 211.488602,630.731873 210.768204,630.758789
	C210.316071,630.728149 210.135086,630.787354 209.521591,630.708496
	C206.076019,630.661865 203.062958,630.753296 199.668427,630.740417
	C198.505630,630.706665 197.724350,630.777161 196.500427,630.712036
	C192.361496,630.454163 188.665222,630.331909 184.869781,629.972290
	C183.856522,629.892212 182.942429,630.049500 181.579498,630.350037
	C173.743301,630.394165 166.355942,630.295044 158.868622,629.960449
	C157.855286,629.881287 156.941925,630.037598 155.599243,630.334229
	C152.465210,630.595703 149.760452,630.716797 146.602737,630.731506
	C142.744003,630.694519 139.338242,630.763916 135.487778,630.694214
	C130.046524,630.651062 125.049973,630.747070 119.653046,630.736328
	C116.070053,630.704407 112.887436,630.779297 109.704834,630.854126
	C109.364388,630.577087 109.023933,630.300049 108.563583,630.034668
z"/>
<path fill="#171616" opacity="1.000000" stroke="none"
	d="
M200.049911,630.844727
	C203.062958,630.753296 206.076019,630.661865 209.625183,630.890259
	C210.453979,631.089539 210.746643,630.968994 211.039337,630.848511
	C211.488602,630.731873 211.937866,630.615234 213.093277,630.471191
	C214.856964,630.568237 215.914520,630.692810 217.235764,631.151123
	C218.128143,631.651001 218.756561,631.961121 219.385529,631.962219
	C236.577087,631.992310 253.768799,632.010254 270.960144,631.946411
	C271.989777,631.942566 273.016754,631.241455 274.044952,630.864746
	C274.210297,630.759338 274.375641,630.653992 275.211670,630.505615
	C279.923065,630.670654 283.963837,630.878723 288.004608,631.086792
	C286.684357,631.723816 285.364990,632.915771 284.043671,632.917908
	C226.084961,633.013611 168.126099,633.005249 110.167252,632.989990
	C109.717682,632.989868 109.268181,632.723816 109.363350,632.291199
	C113.289841,631.614685 116.671631,631.228882 120.053421,630.843079
	C125.049973,630.747070 130.046524,630.651062 135.753128,631.017944
	C139.994019,631.266541 143.524872,631.052246 147.055710,630.837891
	C149.760452,630.716797 152.465210,630.595703 155.957748,630.450073
	C157.486557,630.349060 158.227585,630.272461 158.968597,630.195923
	C166.355942,630.295044 173.743301,630.394165 181.937897,630.467041
	C183.486389,630.363708 184.227661,630.286682 184.968933,630.209717
	C188.665222,630.331909 192.361496,630.454163 196.681458,630.990173
	C198.220047,631.217529 199.134979,631.031128 200.049911,630.844727
z"/>
<path fill="#FBFAFA" opacity="1.000000" stroke="none"
	d="
M544.104004,196.007111
	C544.272034,196.030991 544.440002,196.054855 544.851257,196.003677
	C545.709961,196.434586 546.325439,196.940567 546.978577,198.190964
	C547.061646,220.620621 547.106995,242.305862 547.152405,263.991089
	C547.099365,278.688232 547.046326,293.385345 547.004028,308.998718
	C547.061279,313.273621 547.107788,316.632294 547.154297,319.990997
	C547.039612,322.266144 546.924927,324.541290 546.790955,327.199615
	C543.815063,326.733337 541.119812,326.311035 538.141602,325.619293
	C539.955139,325.041473 542.051575,324.733093 544.589600,324.359741
	C544.706909,323.346252 544.979187,322.087280 544.979919,320.828217
	C545.003052,280.746521 545.002563,240.664856 544.985779,200.583176
	C544.985352,199.603104 544.760559,198.623138 544.454712,197.081604
	C544.214050,196.349091 544.158997,196.178101 544.104004,196.007111
z"/>
<path fill="#FBFAFA" opacity="1.000000" stroke="none"
	d="
M188.863449,452.996368
	C188.242554,451.667267 187.083405,450.339722 187.079453,449.008789
	C186.979523,415.239960 186.963486,381.470581 187.101166,347.701996
	C187.108719,345.845428 188.571060,343.994781 189.742310,342.093231
	C190.065796,342.468445 190.003235,342.891785 189.641281,343.773529
	C189.273972,344.818512 189.206024,345.405090 189.138092,345.991669
	C189.053116,362.091766 188.915558,378.191772 188.896805,394.291962
	C188.874756,413.222015 188.955780,432.152191 188.995926,451.791504
	C188.954330,452.665894 188.908890,452.831116 188.863449,452.996368
z"/>
<path fill="#010101" opacity="1.000000" stroke="none"
	d="
M547.535522,263.885925
	C547.106995,242.305862 547.061646,220.620621 547.089478,198.472382
	C547.772400,199.174774 548.907104,200.337280 548.913513,201.506042
	C549.022827,221.238693 549.007751,240.972137 548.945923,260.705170
	C548.942749,261.731445 548.276245,262.755585 547.535522,263.885925
z"/>
<path fill="#929394" opacity="1.000000" stroke="none"
	d="
M403.917053,55.724102
	C403.947754,91.899773 403.972412,128.110809 403.981750,164.321854
	C403.981903,164.972900 403.798889,165.623962 403.432190,166.573761
	C403.047516,164.881638 402.832520,162.890839 402.831116,160.899872
	C402.807800,127.907707 402.805878,94.915512 402.823425,61.923332
	C402.824402,60.102184 403.036835,58.281151 403.502869,56.090176
	C403.854889,55.720287 403.909454,55.759472 403.917053,55.724102
z"/>
<path fill="#FE2825" opacity="1.000000" stroke="none"
	d="
M540.876221,452.441101
	C540.558350,452.308624 540.072327,451.717560 540.073059,451.127075
	C540.107605,422.669495 540.184204,394.211975 540.511963,365.443573
	C540.823547,394.082733 540.879333,423.032776 540.876221,452.441101
z"/>
<path fill="#FE2825" opacity="1.000000" stroke="none"
	d="
M222.081558,367.532715
	C222.415726,368.811462 222.955185,370.551636 222.958847,372.292908
	C223.011215,397.222809 222.991287,422.152863 222.992218,447.553223
	C222.669159,446.499847 222.061264,444.976715 222.058121,443.452301
	C222.006271,418.299835 222.030502,393.147186 222.081558,367.532715
z"/>
<path fill="#E32322" opacity="1.000000" stroke="none"
	d="
M263.585571,351.216614
	C263.150848,351.819458 262.423248,352.782257 261.509674,353.014984
	C249.582230,356.053192 237.628433,358.988037 225.275696,361.906250
	C228.162323,360.606323 231.372604,359.034424 234.762360,358.151886
	C244.203812,355.693909 253.719742,353.522064 263.585571,351.216614
z"/>
<path fill="#E32322" opacity="1.000000" stroke="none"
	d="
M224.146759,466.443115
	C224.709473,466.375336 225.590622,466.624969 225.704788,467.070984
	C228.511292,478.034241 231.240738,489.017242 233.961166,500.002380
	C234.076645,500.468658 233.973648,500.989044 233.943115,501.914551
	C230.645142,490.513916 227.376511,478.683014 224.146759,466.443115
z"/>
<path fill="#FBFAFA" opacity="1.000000" stroke="none"
	d="
M91.078720,626.434937
	C95.944046,627.054138 100.911125,628.051941 106.012955,629.444336
	C102.319008,629.430420 98.473129,629.133789 94.671570,628.549072
	C93.447830,628.360901 92.340858,627.413574 91.078720,626.434937
z"/>
<path fill="#E32322" opacity="1.000000" stroke="none"
	d="
M527.351318,509.883270
	C528.984802,503.463074 530.860901,496.808289 532.836731,490.183289
	C533.726746,487.199127 534.815857,484.274323 536.183838,481.185425
	C533.580261,490.585785 530.607422,500.123291 527.351318,509.883270
z"/>
<path fill="#E32322" opacity="1.000000" stroke="none"
	d="
M496.334778,350.615051
	C487.482330,348.143860 478.389648,345.349701 469.161743,342.214844
	C478.049194,344.680115 487.071869,347.486115 496.334778,350.615051
z"/>
<path fill="#FBFAFA" opacity="1.000000" stroke="none"
	d="
M74.193069,615.284546
	C78.683556,618.032654 83.327980,621.077515 87.984344,624.491211
	C83.446533,621.767212 78.896774,618.674316 74.193069,615.284546
z"/>
<path fill="#FBFAFA" opacity="1.000000" stroke="none"
	d="
M288.304199,630.966614
	C283.963837,630.878723 279.923065,630.670654 275.455139,630.340576
	C277.729950,629.810364 280.431976,629.402222 283.562714,628.993408
	C284.560486,628.807800 285.129547,628.622986 285.865723,628.181030
	C286.889801,628.898132 287.746796,629.872253 288.304199,630.966614
z"/>
<path fill="#FBFAFA" opacity="1.000000" stroke="none"
	d="
M190.894058,473.997345
	C187.900711,469.896729 187.511337,465.329010 188.959106,460.391876
	C189.575821,460.550720 189.762573,460.795532 190.002411,460.999847
	C189.958466,462.078583 189.914536,463.157288 189.945786,464.988831
	C190.270981,466.861908 190.520981,467.982208 190.770996,469.102509
	C190.835510,470.148834 190.900040,471.195190 190.983978,472.870422
	C190.966949,473.665344 190.930511,473.831360 190.894058,473.997345
z"/>
<path fill="#FBFAFA" opacity="1.000000" stroke="none"
	d="
M488.065369,312.385742
	C492.875824,313.409210 497.860626,314.775970 502.920410,316.486633
	C498.076813,315.463379 493.158264,314.096222 488.065369,312.385742
z"/>
<path fill="#010101" opacity="1.000000" stroke="none"
	d="
M201.407410,511.721436
	C199.502151,507.238708 197.833817,502.501617 196.169586,497.387238
	C197.997238,501.829010 199.820786,506.648041 201.407410,511.721436
z"/>
<path fill="#E32322" opacity="1.000000" stroke="none"
	d="
M288.566223,343.856445
	C284.233063,345.560669 279.499695,347.279266 274.354523,348.990967
	C278.683777,347.279663 283.424896,345.575256 288.566223,343.856445
z"/>
<path fill="#FBFAFA" opacity="1.000000" stroke="none"
	d="
M524.285889,322.249268
	C527.940369,322.716736 531.883972,323.424927 535.911499,324.488220
	C532.188721,324.058868 528.381836,323.274445 524.285889,322.249268
z"/>
<path fill="#010101" opacity="1.000000" stroke="none"
	d="
M547.531616,319.888916
	C547.107788,316.632294 547.061279,313.273621 547.083740,309.461914
	C550.530884,312.382202 549.205200,316.085541 547.531616,319.888916
z"/>
<path fill="#E32322" opacity="1.000000" stroke="none"
	d="
M304.587036,337.908630
	C300.881653,339.569427 296.793701,341.271332 292.296478,342.940918
	C295.992981,341.255615 300.098755,339.602661 304.587036,337.908630
z"/>
<path fill="#010101" opacity="1.000000" stroke="none"
	d="
M190.344147,460.937622
	C189.762573,460.795532 189.575821,460.550720 189.260620,460.120422
	C189.090393,457.930206 189.101654,455.884918 188.988190,453.417999
	C188.908890,452.831116 188.954330,452.665894 189.074951,452.254883
	C189.662064,454.964508 190.173981,457.919922 190.344147,460.937622
z"/>
<path fill="#010101" opacity="1.000000" stroke="none"
	d="
M119.653046,630.736328
	C116.671631,631.228882 113.289841,631.614685 109.452797,632.001465
	C109.166138,631.712219 109.334724,631.421997 109.604065,630.992981
	C112.887436,630.779297 116.070053,630.704407 119.653046,630.736328
z"/>
<path fill="#FBFAFA" opacity="1.000000" stroke="none"
	d="
M193.927628,489.998505
	C191.722870,487.879120 190.661011,484.183563 192.139267,481.942383
	C192.651688,481.893616 192.963608,482.014740 192.963608,482.014740
	C192.956573,482.465607 192.949524,482.916473 193.000168,484.070190
	C193.347778,486.514832 193.637695,488.256683 193.927628,489.998505
z"/>
<path fill="#E32322" opacity="1.000000" stroke="none"
	d="
M448.021057,333.518829
	C445.501251,332.738129 442.888916,331.622498 440.165222,330.165588
	C442.678711,330.944183 445.303619,332.064026 448.021057,333.518829
z"/>
<path fill="#010101" opacity="1.000000" stroke="none"
	d="
M194.085342,490.180206
	C193.637695,488.256683 193.347778,486.514832 193.108734,484.391083
	C197.368011,485.072479 195.341904,488.232025 195.135971,490.876160
	C194.552246,490.924072 194.344467,490.690277 194.085342,490.180206
z"/>
<path fill="#E32322" opacity="1.000000" stroke="none"
	d="
M468.862549,341.675507
	C466.497864,341.146576 463.897064,340.351868 461.162964,339.211182
	C463.561951,339.713409 466.094177,340.561584 468.862549,341.675507
z"/>
<path fill="#010101" opacity="1.000000" stroke="none"
	d="
M61.640236,114.517578
	C61.259396,115.800423 60.949852,116.769722 60.357105,117.883255
	C60.465549,116.060738 60.857189,114.093987 61.635971,112.315285
	C62.063995,112.667313 62.104881,112.831299 62.145767,112.995277
	C62.001022,113.398201 61.856274,113.801125 61.640236,114.517578
z"/>
<path fill="#FBFAFA" opacity="1.000000" stroke="none"
	d="
M515.847717,320.176575
	C517.671814,320.346008 519.751038,320.718719 521.912720,321.451477
	C520.031128,321.334320 518.066956,320.857086 515.847717,320.176575
z"/>
<path fill="#FBFAFA" opacity="1.000000" stroke="none"
	d="
M60.898651,590.312927
	C61.153587,589.990601 61.395229,589.995117 61.818142,589.999268
	C62.193859,591.572632 62.388329,593.145325 62.324032,594.846558
	C61.671955,593.530396 61.278645,592.085693 60.898651,590.312927
z"/>
<path fill="#010101" opacity="1.000000" stroke="none"
	d="
M193.253021,481.875732
	C192.963608,482.014740 192.651688,481.893616 192.485565,481.873749
	C192.239120,481.436768 192.158813,481.019623 192.048904,479.971313
	C192.060684,478.896088 192.102051,478.452087 192.143417,478.008087
	C194.523773,478.532806 195.952499,479.414581 193.253021,481.875732
z"/>
<path fill="#FBFAFA" opacity="1.000000" stroke="none"
	d="
M65.984787,604.359558
	C66.943146,605.455505 67.958435,606.886597 68.975723,608.691650
	C67.999062,607.608643 67.020393,606.151672 65.984787,604.359558
z"/>
<path fill="#FBFAFA" opacity="1.000000" stroke="none"
	d="
M505.108521,317.549561
	C506.540833,317.581696 508.201355,317.875580 509.928589,318.499695
	C508.442474,318.490356 506.889557,318.150818 505.108521,317.549561
z"/>
<path fill="#FCFBFB" opacity="1.000000" stroke="none"
	d="
M62.487755,112.926590
	C62.104881,112.831299 62.063995,112.667313 61.978874,112.253723
	C61.934635,112.004112 62.188301,111.731583 62.406834,111.410690
	C62.708546,110.732452 62.791729,110.375122 62.874912,110.017792
	C63.378712,109.379288 63.882507,108.740784 64.672668,107.994049
	C64.249275,109.543175 63.539505,111.200546 62.487755,112.926590
z"/>
<path fill="#010101" opacity="1.000000" stroke="none"
	d="
M207.228607,525.818115
	C206.348969,524.891541 205.712479,523.777466 205.090530,522.335083
	C205.893951,523.214783 206.682861,524.422729 207.228607,525.818115
z"/>
<path fill="#010101" opacity="1.000000" stroke="none"
	d="
M191.061172,468.900726
	C190.520981,467.982208 190.270981,466.861908 190.071747,465.374603
	C190.532135,466.238037 190.941742,467.468506 191.061172,468.900726
z"/>
<path fill="#010101" opacity="1.000000" stroke="none"
	d="
M191.039490,474.301941
	C190.930511,473.831360 190.966949,473.665344 191.072357,473.253967
	C192.515594,473.592255 195.254837,473.586456 191.948395,476.000183
	C191.469925,476.015289 191.151566,475.933533 191.151566,475.933533
	C191.162689,475.491211 191.173798,475.048889 191.039490,474.301941
z"/>
<path fill="#FBFAFA" opacity="1.000000" stroke="none"
	d="
M190.870850,476.140137
	C191.151566,475.933533 191.469925,476.015289 191.630035,476.052307
	C191.835617,476.520203 191.881104,476.951080 192.035004,477.695007
	C192.102051,478.452087 192.060684,478.896088 191.947449,479.668274
	C191.447113,478.779907 191.018616,477.563324 190.870850,476.140137
z"/>
<path fill="#010101" opacity="1.000000" stroke="none"
	d="
M135.773468,52.137947
	C136.575455,52.175865 137.143539,52.365017 137.873550,52.814129
	C137.242493,53.369072 136.449493,53.664059 135.333160,53.892921
	C135.186386,53.314262 135.362961,52.801720 135.773468,52.137947
z"/>
<path fill="#E32322" opacity="1.000000" stroke="none"
	d="
M416.927124,317.647369
	C415.842987,317.455780 414.571442,316.983917 413.190369,316.166504
	C414.300446,316.336334 415.520081,316.851685 416.927124,317.647369
z"/>
<path fill="#E32322" opacity="1.000000" stroke="none"
	d="
M308.652649,336.082581
	C307.874603,336.708405 306.764893,337.342529 305.274780,337.955872
	C306.036591,337.320343 307.178772,336.705627 308.652649,336.082581
z"/>
<path fill="#E32322" opacity="1.000000" stroke="none"
	d="
M315.657440,333.104340
	C314.877014,333.705048 313.769257,334.340149 312.281738,334.959595
	C313.044678,334.342194 314.187408,333.740448 315.657440,333.104340
z"/>
<path fill="#FBFAFA" opacity="1.000000" stroke="none"
	d="
M197.385498,334.066528
	C197.940857,333.472076 198.821304,332.777100 200.104614,332.111267
	C199.575180,332.748932 198.642883,333.357483 197.385498,334.066528
z"/>
<path fill="#E32322" opacity="1.000000" stroke="none"
	d="
M423.999786,321.591797
	C423.128448,321.459869 422.118896,321.042480 421.078735,320.261719
	C421.985931,320.367676 422.923767,320.837006 423.999786,321.591797
z"/>
<path fill="#E32322" opacity="1.000000" stroke="none"
	d="
M326.637177,328.008667
	C326.062378,328.612762 325.149658,329.283600 323.830627,329.945129
	C324.382660,329.315674 325.340973,328.695526 326.637177,328.008667
z"/>
<path fill="#FBFAFA" opacity="1.000000" stroke="none"
	d="
M63.057899,598.274292
	C63.614429,598.713379 64.125473,599.423645 64.333069,600.217590
	C63.690552,599.716003 63.351479,599.130737 63.057899,598.274292
z"/>
<path fill="#E32322" opacity="1.000000" stroke="none"
	d="
M339.073669,626.317993
	C339.896973,626.497681 340.892670,626.938843 341.920044,627.741455
	C341.049835,627.595093 340.147919,627.087280 339.073669,626.317993
z"/>
<path fill="#010101" opacity="1.000000" stroke="none"
	d="
M129.865753,53.826172
	C129.546600,54.353653 129.070389,54.650299 128.301727,54.895065
	C128.575745,54.427235 129.142227,54.011284 129.865753,53.826172
z"/>
<path fill="#010101" opacity="1.000000" stroke="none"
	d="
M204.216156,518.841064
	C203.678650,518.533813 203.366867,518.063904 203.086456,517.300781
	C203.559204,517.564514 204.000549,518.121521 204.216156,518.841064
z"/>
<path fill="#FBFAFA" opacity="1.000000" stroke="none"
	d="
M201.294373,331.943420
	C201.600967,331.533813 202.199768,331.133118 202.953339,330.986633
	C202.600937,331.478027 202.093765,331.715179 201.294373,331.943420
z"/>
<path fill="#010101" opacity="1.000000" stroke="none"
	d="
M196.046814,494.941345
	C195.802017,495.093994 195.426727,494.997925 195.254700,494.608093
	C194.999191,493.794067 194.915726,493.369873 194.832275,492.945679
	C194.832275,492.945679 194.950104,493.129913 195.052856,493.092560
	C195.534286,493.633026 195.912949,494.210846 196.046814,494.941345
z"/>
<path fill="#E32322" opacity="1.000000" stroke="none"
	d="
M267.920532,350.650757
	C267.400940,351.015167 266.746826,351.124756 265.943329,350.961731
	C266.457947,350.591400 267.122009,350.493683 267.920532,350.650757
z"/>
<path fill="#010101" opacity="1.000000" stroke="none"
	d="
M189.425110,345.953247
	C189.206024,345.405090 189.273972,344.818512 189.613708,344.093689
	C189.827713,344.608551 189.769913,345.261719 189.425110,345.953247
z"/>
<path fill="#FBFAFA" opacity="1.000000" stroke="none"
	d="
M512.046326,319.418427
	C512.598022,319.195862 513.278687,319.190155 514.042847,319.517578
	C513.475952,319.778900 512.825623,319.707092 512.046326,319.418427
z"/>
<path fill="#E32322" opacity="1.000000" stroke="none"
	d="
M450.929565,334.597229
	C450.211517,334.752930 449.311218,334.605682 448.228485,334.158508
	C448.946472,334.003784 449.846893,334.149048 450.929565,334.597229
z"/>
<path fill="#E32322" opacity="1.000000" stroke="none"
	d="
M333.617554,324.815704
	C333.178406,325.229401 332.399597,325.600616 331.266052,325.962341
	C331.700195,325.559631 332.489014,325.166412 333.617554,324.815704
z"/>
<path fill="#E32322" opacity="1.000000" stroke="none"
	d="
M319.601685,331.768188
	C319.113312,332.225769 318.269501,332.594086 317.047150,332.940369
	C317.527832,332.505188 318.387024,332.092072 319.601685,331.768188
z"/>
<path fill="#E32322" opacity="1.000000" stroke="none"
	d="
M291.625244,342.858276
	C291.183929,343.221222 290.394775,343.594971 289.247894,343.937439
	C289.685913,343.560486 290.481689,343.214783 291.625244,342.858276
z"/>
<path fill="#E32322" opacity="1.000000" stroke="none"
	d="
M335.678040,323.412476
	C335.447876,323.864227 334.951569,324.384979 334.146362,324.875610
	C334.362274,324.390839 334.887054,323.936157 335.678040,323.412476
z"/>
<path fill="#E32322" opacity="1.000000" stroke="none"
	d="
M460.875000,338.682220
	C460.195129,338.783173 459.290375,338.628326 458.197937,338.175293
	C458.890198,338.060242 459.770142,338.243347 460.875000,338.682220
z"/>
<path fill="#ADADAD" opacity="1.000000" stroke="none"
	d="
M400.166077,53.596024
	C400.683502,53.265705 401.443512,53.141548 402.591125,53.036594
	C403.022430,53.219299 403.066071,53.382805 403.026733,53.786198
	C402.098694,53.951458 401.253693,53.876823 400.166077,53.596024
z"/>
<path fill="#E32322" opacity="1.000000" stroke="none"
	d="
M356.020630,637.374634
	C356.465790,637.257996 357.063141,637.419983 357.803192,637.869873
	C357.354858,637.989563 356.763824,637.821350 356.020630,637.374634
z"/>
<path fill="#E32322" opacity="1.000000" stroke="none"
	d="
M330.690979,325.955933
	C330.506653,326.242981 330.028961,326.582642 329.237976,326.943939
	C329.415710,326.646576 329.906647,326.327545 330.690979,325.955933
z"/>
<path fill="#E32322" opacity="1.000000" stroke="none"
	d="
M342.079681,628.314453
	C342.512238,628.303467 343.119751,628.558167 343.834106,629.145264
	C343.378845,629.178528 342.816742,628.879395 342.079681,628.314453
z"/>
<path fill="#E32322" opacity="1.000000" stroke="none"
	d="
M425.971130,322.628815
	C425.524994,322.741211 424.926880,322.579498 424.186737,322.128937
	C424.636200,322.011597 425.227661,322.183136 425.971130,322.628815
z"/>
<path fill="#E32322" opacity="1.000000" stroke="none"
	d="
M431.961700,325.646790
	C431.522827,325.750916 430.922028,325.587952 430.174683,325.137268
	C430.618713,325.026276 431.209229,325.202972 431.961700,325.646790
z"/>
<path fill="#E32322" opacity="1.000000" stroke="none"
	d="
M427.948853,323.663544
	C427.519073,323.755341 426.921021,323.585724 426.181091,323.126953
	C426.619659,323.025909 427.200104,323.214020 427.948853,323.663544
z"/>
<path fill="#E32322" opacity="1.000000" stroke="none"
	d="
M295.946564,592.270752
	C296.295837,592.273132 296.783203,592.492859 297.102173,592.875549
	C296.650726,592.854980 296.367676,592.671509 295.946564,592.270752
z"/>
<path fill="#E32322" opacity="1.000000" stroke="none"
	d="
M429.950745,324.658447
	C429.519653,324.755646 428.920593,324.591522 428.173126,324.141846
	C428.610748,324.036591 429.196777,324.216858 429.950745,324.658447
z"/>
<path fill="#E32322" opacity="1.000000" stroke="none"
	d="
M328.692413,326.969116
	C328.509857,327.260925 328.033356,327.594635 327.245667,327.949524
	C327.422516,327.650787 327.910492,327.330872 328.692413,326.969116
z"/>
<path fill="#E32322" opacity="1.000000" stroke="none"
	d="
M311.663086,334.925110
	C311.460022,335.236450 310.935486,335.585175 310.072388,335.931580
	C310.269775,335.607025 310.805695,335.284760 311.663086,334.925110
z"/>
<path fill="#E32322" opacity="1.000000" stroke="none"
	d="
M453.042297,335.660797
	C452.591431,335.770172 451.969757,335.600525 451.192810,335.135132
	C451.648834,335.020172 452.260162,335.200989 453.042297,335.660797
z"/>
<path fill="#E32322" opacity="1.000000" stroke="none"
	d="
M351.079224,634.279175
	C351.495148,634.280090 352.105103,634.530823 352.826233,635.110229
	C352.382690,635.135559 351.827972,634.832275 351.079224,634.279175
z"/>
<path fill="#E32322" opacity="1.000000" stroke="none"
	d="
M457.959778,337.654907
	C457.529297,337.803375 456.945526,337.673798 456.189362,337.291809
	C456.613495,337.151917 457.209991,337.264404 457.959778,337.654907
z"/>
<path fill="#E32322" opacity="1.000000" stroke="none"
	d="
M420.914001,319.702881
	C420.504089,319.782013 419.914612,319.614166 419.169434,319.172058
	C419.587280,319.083832 420.160828,319.269897 420.914001,319.702881
z"/>
<path fill="#E32322" opacity="1.000000" stroke="none"
	d="
M348.116852,632.274902
	C348.520294,632.266296 349.115295,632.497620 349.824158,633.041992
	C349.394806,633.074951 348.851593,632.794800 348.116852,632.274902
z"/>
<path fill="#E32322" opacity="1.000000" stroke="none"
	d="
M418.914673,318.703186
	C418.501709,318.778412 417.909515,318.605408 417.169006,318.150818
	C417.592255,318.064484 418.163818,318.259735 418.914673,318.703186
z"/>
<path fill="#E32322" opacity="1.000000" stroke="none"
	d="
M354.075653,636.268555
	C354.477234,636.212830 355.075256,636.394531 355.820923,636.862427
	C355.403076,636.934448 354.837585,636.720215 354.075653,636.268555
z"/>
<path fill="#E32322" opacity="1.000000" stroke="none"
	d="
M322.731934,329.961670
	C322.541138,330.261566 322.043457,330.595795 321.227142,330.941406
	C321.414032,330.633881 321.919525,330.314941 322.731934,329.961670
z"/>
<path fill="#E32322" opacity="1.000000" stroke="none"
	d="
M345.037903,630.283936
	C345.447601,630.217346 346.054565,630.392944 346.812988,630.856262
	C346.388031,630.938049 345.811584,630.732117 345.037903,630.283936
z"/>
<path fill="#E32322" opacity="1.000000" stroke="none"
	d="
M439.960571,329.644348
	C439.521240,329.748993 438.922058,329.587128 438.176514,329.138672
	C438.620361,329.027344 439.210510,329.202606 439.960571,329.644348
z"/>
<path fill="#E32322" opacity="1.000000" stroke="none"
	d="
M437.973053,328.631714
	C437.545837,328.789337 436.961395,328.674225 436.201477,328.309753
	C436.622589,328.159943 437.219238,328.259430 437.973053,328.631714
z"/>
<path fill="#E32322" opacity="1.000000" stroke="none"
	d="
M433.946564,326.669250
	C433.517181,326.760742 432.918823,326.591919 432.175354,326.135742
	C432.612701,326.035217 433.195129,326.222046 433.946564,326.669250
z"/>
<path fill="#E32322" opacity="1.000000" stroke="none"
	d="
M346.953613,631.313538
	C347.178314,631.228271 347.473511,631.408569 347.875183,631.831238
	C347.662506,631.908691 347.343353,631.743896 346.953613,631.313538
z"/>
<path fill="#E32322" opacity="1.000000" stroke="none"
	d="
M357.919495,638.340942
	C358.188416,638.254883 358.481415,638.461182 358.867950,638.926208
	C358.622162,639.001038 358.282867,638.817139 357.919495,638.340942
z"/>
<path fill="#E32322" opacity="1.000000" stroke="none"
	d="
M435.053101,327.707825
	C434.851807,327.774902 434.545563,327.582764 434.135620,327.133545
	C434.337372,327.067169 434.642731,327.257904 435.053101,327.707825
z"/>
<path fill="#010101" opacity="1.000000" stroke="none"
	d="
M547.546021,328.465820
	C547.577942,328.519928 547.514038,328.411743 547.546021,328.465820
z"/>
<path fill="#E32322" opacity="1.000000" stroke="none"
	d="
M320.684265,330.968811
	C320.777466,331.185913 320.581696,331.470154 320.137695,331.846344
	C320.058075,331.637512 320.226685,331.336761 320.684265,330.968811
z"/>
<path fill="#E32322" opacity="1.000000" stroke="none"
	d="
M455.066193,336.713684
	C454.876221,336.810608 454.571564,336.660522 454.144043,336.283813
	C454.331299,336.193695 454.641418,336.330231 455.066193,336.713684
z"/>
<path fill="#FBFAFA" opacity="1.000000" stroke="none"
	d="
M514.314453,319.173859
	C514.604858,319.089264 514.904114,319.041199 515.203430,318.993103
	C515.094788,319.061646 514.986206,319.130188 514.613647,319.173523
	C514.349670,319.148315 514.323303,319.210388 514.314453,319.173859
z"/>
<path fill="#E32322" opacity="1.000000" stroke="none"
	d="
M224.640350,361.897308
	C224.744461,362.171600 224.554108,362.468079 224.108414,362.858459
	C224.017334,362.608093 224.181610,362.263794 224.640350,361.897308
z"/>
<path fill="#E32322" opacity="1.000000" stroke="none"
	d="
M223.672150,362.978027
	C223.929840,363.076782 223.945145,363.269104 223.758972,363.744171
	C223.557495,364.026947 223.166275,364.023102 223.166290,364.023102
	C223.254105,363.705933 223.341919,363.388763 223.672150,362.978027
z"/>
<path fill="#FE2825" opacity="1.000000" stroke="none"
	d="
M223.050934,364.253052
	C223.166275,364.023102 223.557495,364.026947 223.752411,364.033447
	C223.716141,364.294250 223.484955,364.548492 223.000580,364.882263
	C222.810135,364.802155 222.872879,364.642548 223.050934,364.253052
z"/>
<path fill="#E32322" opacity="1.000000" stroke="none"
	d="
M413.031250,315.638672
	C412.758392,315.735504 412.437836,315.508331 411.955872,315.022644
	C412.190857,314.947662 412.587219,315.131195 413.031250,315.638672
z"/>
<path fill="#010101" opacity="1.000000" stroke="none"
	d="
M62.671753,110.191010
	C62.791729,110.375122 62.708546,110.732452 62.373207,111.227592
	C62.236897,111.031677 62.352749,110.697960 62.671753,110.191010
z"/>
<path fill="#E32322" opacity="1.000000" stroke="none"
	d="
M526.280518,511.012085
	C526.218018,510.807709 526.417480,510.517029 526.869263,510.129944
	C526.928589,510.330933 526.735596,510.628357 526.280518,511.012085
z"/>
<path fill="#010101" opacity="1.000000" stroke="none"
	d="
M203.521515,512.539124
	C203.476273,512.563721 203.566742,512.514526 203.521515,512.539124
z"/>
<path fill="#E32322" opacity="1.000000" stroke="none"
	d="
M287.940643,584.290649
	C288.124359,584.253113 288.437286,584.466248 288.853149,584.951416
	C288.660675,584.996094 288.365265,584.768738 287.940643,584.290649
z"/>
<path fill="#E32322" opacity="1.000000" stroke="none"
	d="
M337.239197,625.000183
	C337.309326,624.857849 337.579041,624.833923 337.872375,625.004028
	C337.895996,625.198120 337.438751,625.118591 337.239197,625.000183
z"/>
<path fill="#E32322" opacity="1.000000" stroke="none"
	d="
M337.944214,625.320251
	C338.175568,625.235291 338.473267,625.420166 338.872162,625.854126
	C338.652405,625.932190 338.331451,625.761169 337.944214,625.320251
z"/>
<path fill="#ADADAD" opacity="1.000000" stroke="none"
	d="
M143.149155,232.029175
	C144.250488,231.728012 145.351822,231.426819 147.098267,231.414536
	C148.730087,231.800720 149.716797,231.982849 150.703522,231.983093
	C202.348373,231.995834 253.993210,231.999863 305.638031,231.957047
	C307.054810,231.955887 308.471100,231.433212 309.887634,231.153748
	C316.538757,233.006668 320.622437,237.401169 321.142273,243.265121
	C321.900848,251.821533 319.730255,255.516205 310.872986,259.460419
	C309.409119,259.182983 308.589142,259.016388 307.769135,259.016205
	C255.920959,259.003815 204.072769,258.997833 152.224625,259.043060
	C150.818039,259.044281 149.411926,259.611298 148.050476,260.000122
	C148.095337,260.085724 148.088882,260.278931 148.088882,260.278931
	C134.702560,255.498138 131.948700,244.246170 141.989182,232.913605
	C142.828339,232.571548 143.030197,232.335876 143.149155,232.029175
z"/>
<path fill="#ADADAD" opacity="1.000000" stroke="none"
	d="
M146.455582,193.042816
	C140.201019,191.445526 136.450638,186.962296 135.968277,180.506210
	C135.435577,173.376373 139.100601,167.912292 146.995804,165.349243
	C148.804825,165.765335 149.953918,165.983261 151.103012,165.983337
	C204.585571,165.986893 258.068146,165.971481 311.550690,165.958252
	C320.756592,166.723450 324.466125,181.450027 318.170441,188.324951
	C316.099823,190.586060 313.174438,192.064407 310.043213,193.965118
	C309.273407,193.985306 309.100311,193.941071 308.631195,193.614349
	C307.351349,193.221069 306.367462,193.013397 305.383606,193.013382
	C252.407593,193.012146 199.431595,193.028381 146.455582,193.042816
z"/>
<path fill="#FEFEFE" opacity="1.000000" stroke="none"
	d="
M148.016144,164.590286
	C149.422180,164.060547 150.827499,163.069870 152.234360,163.067688
	C203.367737,162.988480 254.501251,162.993271 305.634705,163.044174
	C307.007843,163.045547 308.380371,163.683441 309.403015,164.439209
	C274.149261,164.846664 239.245651,164.864883 204.342133,164.821945
	C185.566727,164.798859 166.791473,164.670914 148.016144,164.590286
z"/>
<path fill="#FEFEFE" opacity="1.000000" stroke="none"
	d="
M308.927185,193.896851
	C309.100311,193.941071 309.273407,193.985306 309.709839,194.079315
	C308.650269,194.752335 307.328400,195.918243 306.004395,195.920609
	C254.615311,196.012695 203.226028,196.005630 151.836807,195.954636
	C150.636719,195.953445 149.437286,195.301086 148.593048,194.555405
	C200.780502,194.159088 252.612457,194.162033 304.444397,194.149521
	C305.938690,194.149155 307.432922,193.984756 308.927185,193.896851
z"/>
<path fill="#FEFEFE" opacity="1.000000" stroke="none"
	d="
M307.979248,260.247864
	C306.618500,260.831726 305.258606,261.923737 303.896851,261.926086
	C253.238174,262.013092 202.579300,262.006226 151.920517,261.958405
	C150.707230,261.957275 149.494537,261.346130 148.185226,260.649231
	C148.088882,260.278931 148.095337,260.085724 148.514404,260.068604
	C177.021301,260.067871 205.109177,260.070923 233.197006,260.104706
	C258.124451,260.134705 283.051849,260.198822 307.979248,260.247864
z"/>
<path fill="#FEFEFE" opacity="1.000000" stroke="none"
	d="
M149.014206,230.535126
	C150.433578,230.023743 151.852280,229.067444 153.272430,229.065262
	C203.517700,228.988373 253.763077,228.994720 304.008423,229.037949
	C305.240570,229.039017 306.472290,229.589584 307.380981,230.322479
	C271.157135,230.781952 235.256516,230.835358 199.355957,230.809296
	C182.575317,230.797104 165.794785,230.631302 149.014206,230.535126
z"/>
<path fill="#ECEAEA" opacity="1.000000" stroke="none"
	d="
M199.000000,55.007103
	C266.278015,55.007069 333.056030,55.007069 399.834045,55.007069
	C399.833771,55.241505 399.833496,55.475937 399.833252,55.710373
	C312.934784,55.710373 226.036316,55.710373 139.137863,55.710373
	C139.136810,55.475960 139.135742,55.241550 139.134689,55.007137
	C158.923126,55.007137 178.711563,55.007137 199.000000,55.007103
z"/>
<path fill="#FBFAFA" opacity="1.000000" stroke="none"
	d="
M482.906738,196.871384
	C490.322815,196.917740 497.738922,196.964096 506.072876,196.975571
	C510.294647,196.916962 513.598572,196.893265 516.902466,196.869553
	C520.989990,196.915176 525.077515,196.960815 530.044067,196.970749
	C532.582703,196.912033 534.242188,196.889008 535.901733,196.865997
	C536.362610,196.936264 536.823425,197.006561 537.630493,197.128448
	C536.807922,197.786209 535.640747,198.918106 534.470032,198.921738
	C503.419281,199.018036 472.368134,199.008148 441.317200,198.952988
	C440.288208,198.951157 439.260376,198.289017 438.128113,197.556610
	C439.761444,197.122147 441.498688,197.065750 444.125031,196.975754
	C451.645020,196.920319 458.275879,196.898483 464.906769,196.876648
	C468.991760,196.921112 473.076782,196.965576 478.027283,196.974274
	C480.230804,196.916122 481.568756,196.893753 482.906738,196.871384
z"/>
<path fill="#929394" opacity="1.000000" stroke="none"
	d="
M147.783447,164.722366
	C166.791473,164.670914 185.566727,164.798859 204.342133,164.821945
	C239.245651,164.864883 274.149261,164.846664 309.518982,164.814957
	C310.369659,164.995316 310.754150,165.214630 311.344666,165.696106
	C258.068146,165.971481 204.585571,165.986893 151.103012,165.983337
	C149.953918,165.983261 148.804825,165.765335 147.360779,165.364883
	C147.227463,165.005310 147.389114,164.929871 147.783447,164.722366
z"/>
<path fill="#929394" opacity="1.000000" stroke="none"
	d="
M308.330811,260.155273
	C283.051849,260.198822 258.124451,260.134705 233.197006,260.104706
	C205.109177,260.070923 177.021301,260.067871 148.469528,259.982971
	C149.411926,259.611298 150.818039,259.044281 152.224625,259.043060
	C204.072769,258.997833 255.920959,259.003815 307.769135,259.016205
	C308.589142,259.016388 309.409119,259.182983 310.533783,259.527405
	C310.119751,259.876129 309.401062,259.969391 308.330811,260.155273
z"/>
<path fill="#929394" opacity="1.000000" stroke="none"
	d="
M148.714325,230.677277
	C165.794785,230.631302 182.575317,230.797104 199.355957,230.809296
	C235.256516,230.835358 271.157135,230.781952 307.519409,230.680542
	C308.402313,230.730438 308.823547,230.860916 309.566223,231.072571
	C308.471100,231.433212 307.054810,231.955887 305.638031,231.957047
	C253.993210,231.999863 202.348373,231.995834 150.703522,231.983093
	C149.716797,231.982849 148.730087,231.800720 147.441010,231.441589
	C147.563904,231.059616 147.989182,230.939514 148.714325,230.677277
z"/>
<path fill="#929394" opacity="1.000000" stroke="none"
	d="
M308.631195,193.614349
	C307.432922,193.984756 305.938690,194.149155 304.444397,194.149521
	C252.612457,194.162033 200.780502,194.159088 148.481293,194.176605
	C147.635452,193.978867 147.256897,193.762833 146.666962,193.294800
	C199.431595,193.028381 252.407593,193.012146 305.383606,193.013382
	C306.367462,193.013397 307.351349,193.221069 308.631195,193.614349
z"/>
<path fill="#FBFAFA" opacity="1.000000" stroke="none"
	d="
M425.070496,195.412582
	C426.834839,195.553589 428.658875,196.034241 430.750854,196.740479
	C429.055908,196.561447 427.093048,196.156845 425.070496,195.412582
z"/>
<path fill="#FBFAFA" opacity="1.000000" stroke="none"
	d="
M194.521103,493.019226
	C194.915726,493.369873 194.999191,493.794067 195.072144,494.543274
	C194.541687,495.048492 194.021744,495.228668 193.501816,495.408875
	C193.737869,494.636841 193.973907,493.864838 194.521103,493.019226
z"/>
<path fill="#929394" opacity="1.000000" stroke="none"
	d="
M543.895203,196.089752
	C544.158997,196.178101 544.214050,196.349091 544.178589,196.773895
	C543.923950,196.990463 543.759766,196.953232 543.347595,196.868958
	C543.205627,196.524506 543.401184,196.307999 543.895203,196.089752
z"/>
<path fill="#FEFEFE" opacity="1.000000" stroke="none"
	d="
M142.928864,232.092407
	C143.030197,232.335876 142.828339,232.571548 142.309875,232.762848
	C142.204956,232.496399 142.415756,232.285110 142.928864,232.092407
z"/>
<path fill="#929394" opacity="1.000000" stroke="none"
	d="
M434.315613,196.826797
	C434.119049,196.777863 434.413177,196.465302 434.413177,196.465302
	C434.413177,196.465302 434.795624,196.574814 434.856049,196.712234
	C434.916473,196.849655 434.512177,196.875732 434.315613,196.826797
z"/>
<path fill="#F7F4F3" opacity="1.000000" stroke="none"
	d="
M402.131348,449.034607
	C409.107727,442.436310 416.130096,435.885773 423.050415,429.229248
	C435.125488,417.614441 447.079315,405.872650 459.235657,394.344116
	C461.191315,392.489380 463.932800,391.463257 467.088440,390.002808
	C469.571716,389.923248 471.277618,389.895020 472.983490,389.866791
	C473.622711,389.951813 474.261932,390.036835 475.447205,390.376282
	C476.658539,390.741547 477.323761,390.852417 477.989014,390.963257
	C483.041443,393.554718 486.940979,397.263428 488.932648,402.674042
	C492.755676,413.059692 487.619873,420.086029 481.302612,426.989075
	C475.854004,432.942902 470.384644,438.877838 464.952789,444.846893
	C464.308624,445.554779 463.937195,446.514679 463.279877,447.206207
	C456.027313,454.836639 448.622589,462.326294 441.505005,470.079865
	C435.596222,476.516602 430.128021,483.356628 424.254242,489.826996
	C419.492615,495.072205 414.275146,499.903900 409.519531,505.154175
	C403.844025,511.420013 398.546906,518.027832 392.898132,524.318909
	C387.231720,530.629639 381.444550,536.841064 375.503571,542.893127
	C370.585571,547.903137 359.682526,547.861389 354.727478,542.872192
	C331.842041,519.829224 308.978607,496.763947 286.204895,473.610687
	C279.260406,466.550507 278.901031,460.532928 285.363892,453.159180
	C289.221100,448.758301 293.783905,444.871521 298.467926,441.334106
	C301.921417,438.725952 312.047302,441.726166 316.739563,446.278198
	C321.636230,451.028503 326.362854,455.954102 331.578400,461.198181
	C332.300659,461.806854 332.608368,462.020416 332.916077,462.233978
	C332.916077,462.233978 332.935303,462.064392 332.958405,462.348267
	C333.288666,462.877197 333.595825,463.122284 333.902954,463.367371
	C342.597229,471.923401 351.291504,480.479431 360.078674,489.126892
	C373.695312,476.289459 387.242615,463.517426 401.155487,450.323059
	C401.724518,449.612061 401.927948,449.323364 402.131348,449.034607
z"/>
<path fill="#C00B0A" opacity="1.000000" stroke="none"
	d="
M472.909424,389.511597
	C471.277618,389.895020 469.571716,389.923248 467.441650,389.904205
	C468.606323,386.713165 470.689789,387.677094 472.909424,389.511597
z"/>
<path fill="#C00B0A" opacity="1.000000" stroke="none"
	d="
M477.770477,390.698151
	C477.323761,390.852417 476.658539,390.741547 475.770721,390.367920
	C476.216095,390.214417 476.884003,390.323730 477.770477,390.698151
z"/>
<path fill="#C00B0A" opacity="1.000000" stroke="none"
	d="
M401.888550,449.149780
	C401.927948,449.323364 401.724518,449.612061 401.277649,450.014893
	C401.238068,449.841003 401.441925,449.552979 401.888550,449.149780
z"/>
<path fill="#C00B0A" opacity="1.000000" stroke="none"
	d="
M332.817627,461.959412
	C332.608368,462.020416 332.300659,461.806854 331.877686,461.330688
	C332.081299,461.273712 332.400238,461.479279 332.817627,461.959412
z"/>
<path fill="#C00B0A" opacity="1.000000" stroke="none"
	d="
M333.811371,463.075378
	C333.595825,463.122284 333.288666,462.877197 332.873138,462.351898
	C333.083099,462.308929 333.401428,462.546143 333.811371,463.075378
z"/>
<path fill="#929394" opacity="1.000000" stroke="none"
	d="
M464.606812,196.603546
	C458.275879,196.898483 451.645020,196.920319 444.555054,196.907425
	C450.832916,196.691956 457.569855,196.511215 464.606812,196.603546
z"/>
<path fill="#929394" opacity="1.000000" stroke="none"
	d="
M516.613220,196.603027
	C513.598572,196.893265 510.294647,196.916962 506.543152,196.906586
	C509.505005,196.693832 512.914490,196.515152 516.613220,196.603027
z"/>
<path fill="#929394" opacity="1.000000" stroke="none"
	d="
M535.656250,196.616821
	C534.242188,196.889008 532.582703,196.912033 530.510132,196.901154
	C531.868286,196.700729 533.639587,196.534195 535.656250,196.616821
z"/>
<path fill="#929394" opacity="1.000000" stroke="none"
	d="
M482.679718,196.626343
	C481.568756,196.893753 480.230804,196.916122 478.492981,196.904755
	C479.546356,196.707748 480.999512,196.544525 482.679718,196.626343
z"/>
<path fill="#010101" opacity="1.000000" stroke="none"
	d="
M273.627136,630.762024
	C273.016754,631.241455 271.989777,631.942566 270.960144,631.946411
	C253.768799,632.010254 236.577087,631.992310 219.385529,631.962219
	C218.756561,631.961121 218.128143,631.651001 217.487427,631.020081
	C217.638229,630.458923 217.801071,630.362671 217.963913,630.266479
	C220.036591,630.369812 222.109283,630.473145 225.001785,630.553345
	C227.205505,630.442993 228.589386,630.355896 229.973282,630.268738
	C237.359634,630.371643 244.746002,630.474609 252.960724,630.551880
	C254.850494,630.439758 255.911911,630.353271 256.973328,630.266846
	C259.043396,630.369507 261.113495,630.472107 264.002594,630.551270
	C266.205566,630.440186 267.589478,630.352539 268.973419,630.264954
	C270.385406,630.396362 271.797363,630.527832 273.627136,630.762024
z"/>
<path fill="#010101" opacity="1.000000" stroke="none"
	d="
M146.602737,630.731567
	C143.524872,631.052246 139.994019,631.266541 136.197830,631.157104
	C139.338242,630.763916 142.744003,630.694519 146.602737,630.731567
z"/>
<path fill="#FBFAFA" opacity="1.000000" stroke="none"
	d="
M229.841644,629.993958
	C228.589386,630.355896 227.205505,630.442993 225.422791,630.400085
	C226.585983,630.086426 228.148010,629.902771 229.841644,629.993958
z"/>
<path fill="#FBFAFA" opacity="1.000000" stroke="none"
	d="
M217.835968,629.992310
	C217.801071,630.362671 217.638229,630.458923 217.223724,630.686279
	C215.914520,630.692810 214.856964,630.568237 213.413910,630.326172
	C214.588272,630.045227 216.148148,629.881653 217.835968,629.992310
z"/>
<path fill="#FBFAFA" opacity="1.000000" stroke="none"
	d="
M268.841431,629.990601
	C267.589478,630.352539 266.205566,630.440186 264.422852,630.397461
	C265.585907,630.083496 267.147675,629.899902 268.841431,629.990601
z"/>
<path fill="#FBFAFA" opacity="1.000000" stroke="none"
	d="
M256.854797,630.009094
	C255.911911,630.353271 254.850494,630.439758 253.406601,630.397644
	C254.261520,630.096558 255.498917,629.924011 256.854797,630.009094
z"/>
<path fill="#FBFAFA" opacity="1.000000" stroke="none"
	d="
M184.869781,629.972290
	C184.227661,630.286682 183.486389,630.363708 182.386734,630.323792
	C182.942429,630.049500 183.856522,629.892212 184.869781,629.972290
z"/>
<path fill="#FBFAFA" opacity="1.000000" stroke="none"
	d="
M158.868622,629.960449
	C158.227585,630.272461 157.486557,630.349060 156.387054,630.309753
	C156.941925,630.037598 157.855286,629.881287 158.868622,629.960449
z"/>
<path fill="#010101" opacity="1.000000" stroke="none"
	d="
M199.668427,630.740417
	C199.134979,631.031128 198.220047,631.217529 197.124084,631.125793
	C197.724350,630.777161 198.505630,630.706665 199.668427,630.740417
z"/>
<path fill="#010101" opacity="1.000000" stroke="none"
	d="
M210.768188,630.758728
	C210.746643,630.968994 210.453979,631.089539 210.057709,631.028259
	C210.135086,630.787354 210.316071,630.728149 210.768188,630.758728
z"/>
</svg>
